<?xml version="1.0" encoding="UTF-8" standalone="no"?>
<svg
   xmlns:dc="http://purl.org/dc/elements/1.1/"
   xmlns:cc="http://creativecommons.org/ns#"
   xmlns:rdf="http://www.w3.org/1999/02/22-rdf-syntax-ns#"
   xmlns:svg="http://www.w3.org/2000/svg"
   xmlns="http://www.w3.org/2000/svg"
   xmlns:sodipodi="http://sodipodi.sourceforge.net/DTD/sodipodi-0.dtd"
   xmlns:inkscape="http://www.inkscape.org/namespaces/inkscape"
   sodipodi:docname="drawing.svg"
   inkscape:version="1.0 (4035a4fb49, 2020-05-01)"
   id="svg8"
   version="1.1"
   viewBox="0 0 111.22318 89.74015"
   height="89.74015mm"
   width="111.22318mm">
  <defs
     id="defs2" />
  <sodipodi:namedview
     fit-margin-bottom="0"
     fit-margin-right="0"
     fit-margin-left="0"
     fit-margin-top="0"
     objecttolerance="20"
     inkscape:window-maximized="0"
     inkscape:window-y="0"
     inkscape:window-x="96"
     inkscape:window-height="1033"
     inkscape:window-width="1424"
     showgrid="false"
     inkscape:document-rotation="0"
     inkscape:current-layer="Group"
     inkscape:document-units="mm"
     inkscape:cy="129.87862"
     inkscape:cx="300.85162"
     inkscape:zoom="0.7"
     inkscape:pageshadow="2"
     inkscape:pageopacity="0.0"
     borderopacity="1.0"
     bordercolor="#666666"
     pagecolor="#ffffff"
     id="base" />
  <metadata
     id="metadata5">
    <rdf:RDF>
      <cc:Work
         rdf:about="">
        <dc:format>image/svg+xml</dc:format>
        <dc:type
           rdf:resource="http://purl.org/dc/dcmitype/StillImage" />
        <dc:title></dc:title>
      </cc:Work>
    </rdf:RDF>
  </metadata>
  <g
     transform="translate(-43.406876,-111.01608)"
     id="layer1"
     inkscape:groupmode="layer"
     inkscape:label="Layer 1">
    <g
       transform="matrix(0.26458333,0,0,0.26458333,-172.20595,45.799157)"
       style="opacity:0.203448;fill:#000000;fill-rule:nonzero;stroke:none;stroke-width:1"
       id="Group">
      <polygon
         transform="translate(-512.14287,-170.71429)"
         id="polygon842"
         points="1390.3619,509.07502 1379.9131,509.07502 1382.5531,517.49889 1450.4844,520.46876 1427.8777,506.11903 1400.1716,506.9517 1399.0739,491.8942 1403.5619,493.83711 1414.4137,492.57422 1413.3021,478.77961 1383.1922,479.14043 1375.036,468.28793 1375.4112,462.48698 1336.7422,427.70901 1327.0575,435.23082 1382.5531,502.81609 1390.3619,505.42514 " />
      <polygon
         transform="translate(-512.14287,-170.71429)"
         id="polygon844"
         points="1476.2313,467.81608 1476.2313,430.73439 1471.5349,428.81924 1469.3395,417.20345 1462.5033,417.20345 1458.1543,428.87475 1452.9715,433.50996 1413.6495,454.89578 1413.6495,475.9624 1426.7244,493.28199 1459.8077,493.28199 1464.1012,482.51276 1471.5349,475.74035 1471.5349,470.78595 " />
      <polygon
         transform="translate(-512.14287,-170.71429)"
         id="polygon846"
         points="1476.2313,479.88984 1476.2313,507.35416 1486.2772,507.35416 1484.8877,489.84028 1492.7105,492.74075 1492.7105,505.0088 1500.9778,504.45368 1500.7138,467.81608 1480.8166,475.47667 1481.2334,479.88984 " />
      <polygon
         transform="translate(-512.14287,-170.71429)"
         id="polygon848"
         points="1555.3896,536.90017 1536.9374,563.12936 1529.5315,563.12936 1529.5315,554.85814 1507.286,556.42634 1472.3686,596.11708 1453.8052,596.53342 1433.1438,610.60559 1431.8238,672.32052 1419.249,684.32488 1419.249,695.16351 1479.5105,674.5271 1528.142,672.5842 1546.1913,712.27493 1601.5617,714.14845 1654.9175,664.03542 1668.1592,634.10084 1662.6985,611.92399 1642.4678,594.59051 1640.856,561.54728 1627.6005,538.70429 1615.5815,538.06591 1610.6072,579.54689 1587.7921,577.89542 1581.1643,573.96798 1580.539,557.60596 1592.5441,560.10398 1602.8539,550.08415 1580.9559,536.90017 " />
      <polygon
         transform="translate(-512.14287,-170.71429)"
         id="polygon850"
         points="1589.251,724.29318 1571.8965,722.43354 1553.5138,742.8479 1573.0775,744.87407 1588.8342,736.22816 " />
      <polygon
         transform="translate(-512.14287,-170.71429)"
         id="polygon852"
         points="1732.2139,707.09848 1747.4286,698.54971 1741.829,688.66866 1733.6867,690.26462 1733.4505,671.90418 1718.4581,672.86176 1716.4572,701.58897 1703.3406,710.55408 1678.9415,713.87089 1639.8278,741.68216 1633.2695,747.13617 1633.2695,756.37884 1653.5697,753.33958 1703.285,722.97478 1717.2214,713.73211 " />
      <polygon
         transform="translate(-512.14287,-170.71429)"
         id="polygon854"
         points="1641.9676,511.7812 1641.9676,533.18089 1662.2122,533.18089 1662.2122,524.54885 1651.9023,524.54885 1650.1933,498.52783 1601.5617,476.48976 1588.07,483.60911 1575.4258,484.02544 1576.4679,470.84146 1564.3794,463.73599 1547.3584,480.86129 1558.8355,494.93346 1583.6514,498.52783 1597.4628,505.77208 1597.8796,512.53061 1588.7647,512.53061 1589.251,526.464 1619.2219,524.54885 1630.1293,512.87756 " />
      <polygon
         transform="translate(-512.14287,-170.71429)"
         id="polygon860"
         points="1497.9488,514.52903 1497.9488,518.60912 1503.8818,520.46876 1505.6742,514.52903 " />
      <rect
         id="Rectangle"
         x="950.36035"
         y="349.75449"
         width="9.1288357"
         height="4.9682808" />
      <polygon
         transform="translate(-512.14287,-170.71429)"
         id="polygon863"
         points="1494.3084,520.46876 1494.3084,516.19437 1485.2907,516.19437 1481.5808,520.46876 1476.2313,525.43704 1476.2313,529.78081 1484.5542,529.01753 1484.5542,525.43704 1490.1538,525.43704 1490.1538,521.07938 " />
      <polygon
         transform="translate(-512.14287,-170.71429)"
         id="polygon865"
         points="1516.7483,524.75702 1522.9871,525.43704 1522.1534,517.49889 1511.913,519.09485 1510.9403,524.21578 1499.4911,525.43704 1498.9214,525.43704 1498.9214,533.3058 1507.7029,533.3058 1507.7029,529.46162 1516.7483,529.46162 " />
    </g>
  </g>
</svg>
