<?xml version="1.0" standalone="no"?>
<!DOCTYPE svg PUBLIC "-//W3C//DTD SVG 20010904//EN"
 "http://www.w3.org/TR/2001/REC-SVG-20010904/DTD/svg10.dtd">
<svg version="1.0" xmlns="http://www.w3.org/2000/svg"
 width="1200.000000pt" height="1084.000000pt" viewBox="0 0 1200.000000 1084.000000"
 preserveAspectRatio="xMidYMid meet">

<g transform="translate(0.000000,1084.000000) scale(0.100000,-0.100000)"
fill="#000000" stroke="none">
<path d="M8435 10581 c-8 -17 -26 -33 -39 -37 -21 -5 -24 -13 -29 -74 -3 -37
-10 -76 -15 -87 -6 -10 -15 -37 -22 -61 -6 -23 -24 -62 -40 -85 -27 -41 -70
-137 -70 -157 0 -6 11 -10 24 -10 38 0 40 -35 5 -75 -29 -32 -29 -36 -18 -73
10 -36 8 -47 -20 -121 l-31 -81 22 -51 c19 -46 20 -56 9 -96 -9 -38 -9 -58 5
-123 l17 -78 -34 -94 c-24 -67 -33 -111 -34 -158 -2 -85 -36 -187 -86 -250
-31 -39 -40 -61 -45 -105 -6 -49 -11 -59 -44 -85 -24 -19 -64 -36 -110 -47
-71 -17 -72 -17 -110 5 -22 12 -48 22 -60 22 -12 0 -31 11 -43 24 -12 13 -36
30 -53 39 -23 12 -33 26 -38 49 -3 19 -13 43 -21 55 -18 25 -98 52 -205 67
l-74 11 -54 70 c-43 56 -62 73 -94 82 -23 7 -69 31 -103 53 -56 36 -67 40
-104 34 -32 -5 -41 -3 -41 8 0 7 -24 26 -53 40 -38 18 -58 35 -67 57 -13 33
-155 131 -190 131 -42 0 -69 83 -30 93 13 3 29 26 44 59 15 34 33 58 49 65 16
8 28 23 32 43 4 18 16 52 27 77 13 30 16 49 10 55 -6 6 -12 6 -16 -1 -11 -18
-24 -13 -28 12 -2 13 5 29 19 40 12 10 25 26 28 37 4 11 12 17 21 13 8 -3 14
1 14 11 0 10 8 16 21 16 20 0 21 -1 5 -25 -23 -34 -20 -37 18 -19 19 10 40 31
50 50 8 19 23 34 31 34 13 0 14 3 3 23 -13 24 -12 42 3 61 54 66 89 112 89
116 0 4 -14 19 -30 35 -26 25 -34 28 -49 18 -17 -10 -21 -8 -32 20 -8 18 -14
37 -14 42 0 22 -23 13 -83 -35 -63 -50 -101 -67 -67 -30 23 26 13 37 -20 22
-38 -17 -41 -15 -16 12 29 31 10 45 -27 20 -15 -10 -47 -19 -71 -20 -23 -2
-54 -10 -67 -19 -13 -8 -30 -15 -39 -15 -8 0 -15 -4 -15 -10 0 -5 -15 -3 -33
6 -23 11 -38 28 -47 52 l-13 36 -21 -27 c-22 -27 -23 -27 -73 -16 -29 7 -63
23 -78 36 -21 20 -29 22 -41 12 -19 -16 -30 -4 -14 16 22 27 -28 33 -82 10
-13 -5 -18 -2 -18 10 0 15 -2 16 -17 4 -13 -11 -17 -11 -20 -1 -3 7 -21 12
-42 12 -35 0 -40 4 -65 50 -31 56 -47 61 -79 24 l-22 -26 -33 46 c-19 26 -38
44 -43 41 -5 -4 -9 3 -9 15 0 20 -1 20 -22 6 -20 -14 -24 -14 -40 1 -17 15
-18 15 -18 -2 0 -17 -1 -17 -20 0 -19 18 -20 17 -20 -5 0 -18 -4 -22 -25 -18
-16 4 -25 1 -25 -8 0 -7 -3 -20 -7 -30 -5 -14 -2 -16 21 -12 20 4 26 2 22 -8
-3 -9 2 -14 14 -14 10 0 23 -8 29 -17 8 -15 13 -15 36 -5 32 15 79 16 70 2 -3
-5 1 -10 9 -10 9 0 16 -7 16 -15 0 -8 7 -15 17 -15 15 0 15 -2 -1 -19 -11 -12
-14 -21 -7 -26 6 -3 11 -19 11 -34 0 -22 -8 -31 -42 -49 -31 -15 -44 -18 -50
-9 -5 8 -14 4 -32 -12 -21 -20 -28 -22 -40 -11 -11 8 -36 10 -83 6 -38 -4 -74
-3 -80 2 -7 4 -16 26 -21 47 l-8 40 -13 -38 c-13 -38 -14 -38 -52 -32 l-39 7
6 -31 c5 -25 4 -30 -8 -26 -8 3 -20 -1 -27 -9 -9 -10 -23 -13 -48 -9 -35 6
-35 6 -31 -28 3 -32 2 -34 -29 -34 -31 1 -33 -1 -33 -33 0 -28 -5 -35 -30 -43
-27 -10 -30 -15 -30 -52 0 -22 7 -48 16 -58 14 -15 13 -19 -12 -38 -30 -24
-50 -27 -58 -8 -9 22 -46 -32 -46 -69 0 -18 -5 -36 -11 -40 -6 -3 -8 -17 -4
-31 5 -21 3 -24 -10 -19 -9 3 -18 0 -21 -9 -4 -8 -11 -15 -18 -15 -13 0 -56
-72 -56 -94 0 -22 50 -57 72 -51 22 8 24 -13 2 -22 -12 -4 -13 -8 -3 -14 7 -4
14 -30 15 -58 1 -30 -1 -49 -7 -46 -5 4 -9 13 -9 20 0 25 -46 48 -80 40 -26
-6 -29 -9 -19 -27 6 -11 8 -23 4 -26 -9 -9 -25 19 -25 43 0 18 -6 20 -42 19
-24 0 -56 6 -72 14 -19 9 -43 12 -72 7 -44 -6 -44 -6 -28 -31 14 -20 14 -24 2
-24 -17 0 -40 44 -33 62 5 12 -54 58 -73 58 -5 0 -26 25 -45 55 -20 30 -50 61
-67 70 -16 9 -30 22 -30 30 0 19 -35 37 -65 33 -15 -2 -30 4 -39 17 -10 15
-25 19 -55 19 -50 -2 -56 -6 -41 -33 9 -17 8 -21 -5 -21 -8 0 -20 -12 -26 -27
-8 -21 -12 -24 -19 -13 -5 7 -4 24 1 38 l10 25 -28 -18 c-16 -10 -39 -27 -52
-39 -18 -16 -23 -17 -18 -5 8 25 -10 37 -46 30 -37 -8 -48 -36 -18 -46 21 -6
21 -8 -8 -63 -6 -13 -9 -27 -6 -32 4 -6 1 -10 -4 -10 -6 0 -11 5 -11 11 0 6
-8 9 -18 7 -24 -7 -45 15 -29 31 8 8 6 15 -9 26 -34 25 -44 18 -44 -30 0 -41
-6 -50 -27 -42 -5 1 -6 9 -5 17 2 8 -12 0 -32 -19 -19 -19 -33 -38 -30 -43 3
-4 2 -8 -3 -8 -4 0 -14 -4 -22 -9 -11 -7 -10 -13 4 -35 10 -14 13 -27 9 -28
-5 0 -13 -2 -19 -3 -5 -2 -16 -3 -22 -4 -7 0 -13 -9 -13 -20 0 -13 -10 -21
-32 -25 -29 -6 -31 -8 -15 -17 18 -10 18 -12 -4 -35 -12 -13 -28 -24 -35 -24
-6 0 -14 -6 -17 -14 -4 -9 -15 -12 -33 -8 -19 3 -25 2 -20 -7 5 -7 0 -21 -9
-31 -16 -18 -16 -22 -1 -68 14 -40 15 -58 5 -100 -13 -62 -26 -73 -50 -43 -22
27 -81 50 -87 33 -5 -17 -22 -15 -22 3 0 18 -36 39 -45 25 -3 -5 -13 -6 -21
-3 -11 4 -15 0 -13 -13 2 -10 0 -25 -4 -31 -5 -9 -3 -13 7 -13 9 0 16 -4 16
-10 0 -5 -12 -10 -27 -10 -22 0 -25 -2 -13 -10 13 -8 12 -10 -2 -10 -20 0 -24
-15 -8 -25 6 -3 10 -15 10 -26 0 -12 7 -19 18 -19 31 0 56 -26 58 -60 1 -21
-1 -29 -8 -22 -5 5 -18 7 -29 5 -22 -6 -22 -5 -8 -35 7 -17 6 -32 -4 -56 -13
-31 -14 -32 -29 -15 -9 10 -21 37 -27 59 -6 23 -18 45 -26 48 -10 3 -15 19
-15 45 0 33 -4 40 -25 45 -28 7 -33 33 -10 50 13 10 14 14 2 30 -21 29 -49 12
-82 -49 -23 -41 -34 -53 -47 -49 -12 4 -19 -2 -24 -20 -3 -14 -10 -23 -15 -20
-5 3 -9 -1 -9 -9 0 -8 -9 -17 -20 -20 -11 -3 -25 -18 -32 -34 -6 -15 -17 -35
-24 -43 -18 -23 -22 -91 -7 -127 9 -23 10 -39 3 -58 -13 -33 -6 -45 26 -45 14
0 24 -6 24 -14 0 -16 -90 -83 -131 -98 -16 -5 -34 -23 -44 -44 -9 -19 -21 -34
-26 -34 -6 0 -8 -9 -4 -19 8 -27 -22 -82 -88 -162 -52 -63 -61 -68 -176 -118
-88 -37 -139 -53 -187 -58 -39 -4 -74 -13 -87 -23 -18 -15 -24 -16 -42 -4 -25
16 -96 27 -110 17 -6 -4 -25 -26 -43 -48 -30 -37 -39 -41 -115 -57 -55 -11
-84 -13 -88 -6 -8 13 -94 -44 -109 -72 -6 -11 -19 -20 -30 -20 -11 0 -35 -8
-54 -17 -29 -13 -40 -14 -61 -5 -14 6 -25 18 -25 27 0 19 -11 19 -36 0 -21
-16 -64 -20 -64 -6 0 6 5 13 10 16 17 10 11 25 -9 25 -11 0 -30 -13 -43 -29
-30 -38 -106 -77 -121 -62 -18 18 -27 13 -27 -14 0 -18 -9 -29 -38 -44 -21
-11 -43 -31 -50 -45 -6 -15 -20 -26 -30 -26 -11 0 -30 -16 -45 -39 -23 -35
-34 -41 -108 -61 -105 -28 -159 -61 -159 -96 0 -22 -3 -25 -23 -20 -21 5 -23
3 -19 -29 3 -25 0 -36 -11 -41 -12 -4 -15 -14 -11 -33 5 -25 3 -28 -24 -28
-28 0 -29 2 -21 30 7 24 6 27 -6 17 -13 -10 -15 -8 -15 18 0 16 7 49 15 72 21
58 20 59 -24 48 -39 -10 -41 -12 -86 -121 l-47 -110 20 -51 c15 -41 18 -68 14
-141 -4 -86 -6 -92 -44 -144 -36 -48 -42 -63 -50 -137 -10 -83 -10 -84 19
-131 17 -27 33 -70 37 -96 4 -26 18 -59 30 -74 13 -16 42 -66 66 -113 23 -47
52 -93 63 -102 18 -15 19 -20 8 -27 -10 -7 -12 -22 -8 -58 4 -34 1 -54 -9 -68
-15 -20 -15 -20 -34 5 -11 14 -20 41 -20 62 0 44 -9 70 -21 62 -5 -3 -9 -14
-9 -24 0 -10 -5 -22 -12 -26 -8 -5 -9 3 -5 30 5 31 0 46 -35 102 -23 36 -44
61 -48 57 -4 -4 -13 -25 -20 -46 -10 -32 -10 -41 4 -55 8 -10 18 -36 22 -59 5
-34 14 -47 51 -74 42 -30 45 -34 39 -67 -7 -46 -28 -60 -40 -27 -6 14 -13 25
-18 25 -4 0 -8 11 -8 25 0 15 -6 25 -14 25 -9 0 -18 16 -23 43 -7 35 -13 42
-34 45 -22 3 -31 15 -59 83 -19 43 -39 78 -44 76 -19 -6 -5 -100 22 -147 15
-25 28 -52 28 -60 1 -8 51 -87 111 -175 117 -171 169 -279 153 -319 -16 -43 9
-116 60 -176 56 -65 70 -90 70 -125 0 -14 17 -49 39 -78 54 -72 75 -150 66
-249 -12 -130 6 -198 107 -412 84 -179 89 -195 98 -280 4 -50 4 -95 0 -100 -5
-5 -6 -22 -3 -38 3 -18 -1 -44 -12 -69 -17 -36 -17 -48 -5 -139 l12 -100 -47
-55 c-25 -30 -52 -55 -58 -55 -7 0 -27 9 -45 20 -18 11 -35 20 -37 20 -3 0 -5
-44 -5 -99 0 -89 5 -115 35 -200 5 -11 9 -11 23 3 25 22 42 20 95 -9 31 -18
58 -45 84 -85 34 -53 44 -61 98 -81 33 -12 73 -31 89 -42 23 -16 32 -18 48 -8
13 8 24 9 39 1 13 -7 44 -9 84 -5 56 6 69 4 102 -15 34 -20 38 -20 49 -5 11
14 18 15 47 6 34 -12 67 -7 67 10 0 5 11 9 24 9 15 0 26 7 29 20 3 12 14 20
26 20 16 0 23 8 27 29 5 23 15 33 44 45 21 8 41 24 45 35 9 29 53 41 95 25 46
-17 50 -17 50 1 0 9 9 15 25 15 16 0 25 6 25 16 0 12 6 15 25 10 30 -8 32 1 5
29 l-20 21 59 51 59 52 66 -11 c58 -10 68 -9 85 6 13 12 55 22 131 32 102 14
117 13 161 -1 33 -11 63 -14 89 -10 36 6 41 4 51 -19 10 -20 19 -26 45 -26 20
0 34 6 38 16 4 12 14 14 36 9 21 -5 35 -2 46 9 10 10 33 16 65 16 44 0 51 -3
59 -25 12 -30 14 -31 51 -4 19 13 36 18 50 14 17 -6 35 6 89 60 61 60 69 73
80 127 18 83 38 104 123 129 47 13 129 54 234 116 180 105 215 118 282 108 25
-4 88 -7 138 -6 79 1 114 8 240 47 80 25 194 69 252 98 l106 53 170 17 c115
11 193 14 240 8 64 -7 75 -6 123 18 l54 25 81 -44 c45 -25 110 -66 143 -93 54
-42 68 -48 108 -48 34 0 46 4 46 15 0 31 52 16 106 -30 50 -44 54 -45 119 -45
38 0 64 4 60 9 -3 5 0 13 6 16 6 4 25 -7 43 -24 27 -26 31 -36 28 -71 l-4 -41
37 18 c37 18 37 17 56 -6 25 -31 24 -51 -4 -51 -20 0 -22 -5 -22 -40 0 -22 4
-40 8 -40 5 0 7 -6 4 -14 -4 -9 8 -27 29 -46 29 -25 38 -28 54 -20 29 16 110
-68 110 -113 0 -26 10 -40 48 -74 46 -39 50 -46 67 -125 10 -45 20 -88 22 -95
3 -7 -2 -10 -14 -7 -14 4 -23 -4 -36 -32 -15 -31 -16 -36 -2 -30 8 3 21 8 28
11 6 2 34 -25 62 -60 28 -37 55 -63 62 -60 7 3 19 8 27 11 9 3 21 -5 31 -20
24 -37 32 -33 39 22 4 26 9 55 12 64 4 13 0 15 -17 11 -19 -5 -20 -3 -14 18
11 36 22 44 40 29 13 -11 15 -8 15 23 0 30 11 48 64 109 51 57 80 81 139 111
41 20 79 37 85 37 14 0 33 37 61 120 28 83 62 125 91 110 19 -10 20 -8 21 57
1 66 1 67 14 38 8 -16 14 -44 15 -61 0 -16 6 -36 13 -43 10 -10 5 -18 -23 -42
l-35 -29 27 -48 27 -49 -50 -49 c-29 -29 -54 -64 -61 -87 -6 -20 -17 -42 -24
-48 -9 -8 -10 -18 -3 -35 6 -18 5 -33 -7 -56 -15 -29 -15 -32 1 -41 14 -7 16
-18 10 -56 -11 -82 -13 -84 -54 -77 -20 3 -46 9 -57 12 -19 5 -24 -2 -47 -70
l-26 -76 47 0 c35 0 58 7 86 26 33 23 43 25 70 17 41 -13 79 3 71 28 -4 10 3
39 14 65 12 26 21 59 21 75 0 33 38 139 49 139 5 0 28 -33 51 -72 l43 -73 -2
-105 -2 -105 -56 -56 -55 -57 73 -4 c66 -4 77 -2 102 19 16 13 34 20 40 16 41
-24 147 -117 172 -149 16 -22 33 -42 38 -45 10 -7 67 -160 74 -200 3 -18 -3
-35 -22 -57 -25 -29 -25 -33 -11 -54 9 -12 13 -31 11 -42 -4 -15 19 -54 78
-136 120 -164 134 -176 212 -182 55 -5 70 -11 109 -43 32 -26 46 -45 46 -62 0
-19 4 -24 16 -19 9 4 22 1 30 -5 10 -8 20 -3 41 21 l29 32 51 -25 c42 -22 56
-25 84 -17 30 9 46 3 198 -79 l166 -90 75 73 c73 71 162 136 186 136 7 0 36
-19 64 -41 52 -41 53 -41 80 -25 16 9 35 13 43 10 12 -4 18 4 23 30 5 29 11
36 29 36 30 0 38 -23 14 -38 -30 -19 -25 -67 10 -91 16 -12 40 -21 53 -21 17
0 29 -11 47 -44 22 -44 24 -45 46 -30 26 17 32 14 88 -60 15 -20 32 -36 36
-36 5 0 12 26 15 58 4 31 10 66 13 77 5 18 5 18 -21 2 -28 -19 -46 -15 -46 9
0 10 12 14 43 14 85 0 132 25 221 118 44 47 110 104 146 126 l65 42 204 18
204 17 54 44 c29 24 61 46 71 49 14 5 17 14 14 45 -3 34 -1 40 18 43 l22 3
-25 37 c-29 42 -29 60 3 173 12 44 23 114 24 155 2 66 8 86 48 170 24 52 50
109 57 126 9 22 22 34 44 41 18 5 32 13 33 18 0 6 4 17 8 26 4 9 0 33 -8 53
-12 30 -13 36 -1 36 16 0 39 64 31 85 -3 8 -1 15 4 15 6 0 10 15 10 34 0 27 9
42 51 81 35 32 47 50 39 55 -10 6 -10 8 0 12 7 2 14 32 17 71 4 50 10 70 23
77 10 5 21 22 25 37 3 15 10 30 14 33 4 3 16 28 27 55 18 43 30 56 89 93 39
23 73 51 77 62 4 11 25 32 47 47 30 22 40 37 45 67 4 25 3 42 -4 46 -18 11 0
58 31 83 23 18 36 47 70 157 39 127 41 140 35 216 -6 76 -5 86 28 172 38 98
70 244 60 274 -3 10 9 46 30 85 42 81 55 153 32 172 -11 9 -13 24 -9 62 5 41
2 54 -14 72 -12 13 -28 56 -38 102 -20 90 -37 130 -65 147 -13 9 -16 16 -9 24
7 8 6 15 -2 20 -8 5 -5 12 11 24 21 16 22 20 10 54 -6 20 -9 48 -6 61 3 13 2
26 -3 29 -11 7 -6 148 7 191 7 24 5 33 -11 46 -20 15 -19 17 22 142 25 74 39
132 35 139 -5 7 -11 32 -14 55 l-5 41 -30 -24 c-29 -23 -29 -24 -13 -52 17
-28 16 -29 -20 -71 -35 -40 -39 -42 -74 -36 -22 4 -35 12 -32 19 3 7 -7 23
-21 36 -14 13 -25 34 -25 47 0 30 -23 55 -76 81 -35 18 -45 31 -64 79 -13 32
-30 64 -39 71 -9 7 -16 18 -16 24 0 6 -14 17 -32 24 -26 11 -32 11 -37 -1 -11
-30 -37 -13 -93 61 -50 66 -58 74 -69 59 -20 -27 -35 13 -34 92 0 18 -5 44
-10 59 -7 18 -7 30 1 40 10 12 8 84 -3 124 -23 83 -82 105 -80 30 0 -16 -3
-30 -7 -30 -12 0 -94 81 -113 110 l-15 25 -22 -35 c-12 -19 -20 -43 -17 -52 3
-13 0 -15 -13 -8 -9 5 -23 11 -31 13 -9 3 -29 36 -44 75 -23 57 -27 78 -22
118 7 45 5 50 -16 59 -16 7 -24 21 -28 48 -3 21 -9 39 -15 40 -5 1 -9 11 -7
23 3 29 -50 74 -89 74 -26 0 -29 2 -20 14 10 12 8 17 -7 25 -23 12 -34 45 -19
60 7 7 16 7 29 0 11 -6 22 -8 25 -5 10 10 -51 100 -74 111 -12 5 -24 17 -26
27 -6 22 -45 24 -53 3 -5 -12 -10 -13 -20 -4 -8 6 -14 17 -14 24 0 21 -49 47
-76 41 -21 -6 -25 -2 -30 24 -5 23 -12 30 -30 30 -16 0 -24 -6 -25 -17 0 -10
-16 15 -35 55 -31 67 -54 91 -54 58 0 -8 -13 -16 -31 -18 -30 -5 -33 -2 -54
45 -21 49 -22 50 -29 24 -7 -29 -20 -35 -33 -13 -4 7 -30 23 -56 34 -74 33
-89 55 -82 124 5 53 5 57 -17 60 -16 2 -31 18 -47 49 l-25 47 22 73 c12 43 17
75 12 77 -6 2 -10 18 -10 37 0 18 -11 53 -25 78 -21 36 -24 50 -15 71 9 24 8
26 -19 26 -24 0 -37 11 -75 62 -44 59 -46 63 -40 114 5 41 3 59 -10 79 -9 14
-19 46 -23 72 -3 27 -13 56 -21 66 -14 16 -13 19 6 40 25 27 29 52 7 43 -20
-7 -20 24 0 50 17 23 19 34 5 34 -5 0 -19 9 -30 20 -11 11 -28 20 -38 20 -10
0 -25 11 -32 25 -7 13 -28 29 -46 35 -26 9 -36 21 -55 68 -12 31 -24 59 -26
61 -2 3 -14 -6 -27 -19 -18 -16 -32 -21 -50 -16 -21 5 -27 2 -32 -19 -3 -14
-15 -30 -26 -36 -32 -17 -57 -1 -68 44 -20 77 -22 82 -39 107 -15 24 -18 47
-24 242 -2 64 -3 67 -25 61 -21 -5 -22 -3 -12 22 14 37 13 40 -15 55 -14 7
-25 22 -25 32 0 11 -11 23 -25 28 -33 13 -33 49 0 80 30 28 23 38 -36 48 l-44
7 -5 80 c-7 97 -28 166 -52 173 -19 4 -21 10 -22 52 -1 21 -7 26 -33 28 -27 3
-34 -2 -48 -27z m55 3 c0 -3 -12 -26 -27 -51 l-26 -45 32 16 c23 12 36 14 50
6 27 -14 51 -93 51 -170 0 -54 4 -70 20 -85 11 -10 26 -15 36 -11 28 11 38 -6
15 -24 -19 -14 -21 -22 -16 -53 5 -23 14 -39 26 -42 10 -4 19 -13 19 -20 0 -8
12 -22 26 -32 26 -17 27 -24 8 -91 -6 -21 -4 -22 20 -12 26 9 26 9 26 -34 0
-24 5 -57 11 -74 7 -21 8 -46 1 -75 -8 -38 -6 -49 19 -96 15 -28 31 -72 35
-96 5 -34 14 -50 35 -66 27 -19 30 -19 60 -4 17 9 34 26 37 37 3 13 11 18 23
15 10 -3 26 1 36 9 27 20 29 18 49 -36 14 -40 23 -50 46 -55 16 -4 38 -19 49
-35 12 -15 34 -30 49 -34 32 -6 48 -39 30 -61 -9 -10 -9 -23 -2 -43 7 -21 6
-33 -4 -47 -12 -16 -11 -21 6 -40 12 -13 20 -35 20 -56 0 -19 9 -51 20 -72 21
-40 26 -77 10 -77 -5 0 -10 -12 -10 -26 0 -30 107 -183 128 -184 6 0 12 -8 12
-17 0 -10 10 -34 22 -53 32 -52 39 -132 17 -208 l-18 -63 36 -59 c19 -33 41
-60 48 -60 10 0 11 -10 4 -40 -8 -37 -7 -44 21 -79 19 -23 46 -43 69 -49 21
-7 46 -21 56 -32 10 -11 29 -20 42 -20 15 0 27 -9 35 -26 11 -24 15 -25 59
-19 41 6 49 4 58 -14 8 -14 8 -22 0 -27 -14 -8 49 -74 72 -74 10 0 21 -5 24
-10 4 -6 21 -10 39 -8 36 2 56 -7 56 -26 0 -13 53 -56 70 -56 5 0 10 7 10 15
0 8 2 15 5 15 10 0 45 -40 45 -51 0 -6 6 -9 14 -6 8 3 17 -1 20 -9 3 -9 -2
-17 -12 -21 -30 -12 -42 -36 -26 -54 8 -9 11 -19 7 -22 -3 -4 1 -13 9 -20 9
-6 18 -21 20 -32 2 -13 12 -21 31 -23 19 -2 27 -9 27 -23 0 -20 15 -26 25 -9
10 17 37 -10 29 -29 -3 -9 -8 -29 -10 -44 -3 -24 -1 -27 16 -22 17 5 20 2 20
-24 0 -19 5 -31 13 -31 24 0 34 -20 27 -58 -4 -27 1 -52 19 -95 21 -49 23 -60
10 -67 -12 -8 -11 -12 6 -24 11 -9 24 -16 28 -16 4 0 3 -9 -3 -20 -18 -34 0
-44 29 -16 l26 25 29 -35 c37 -47 53 -32 27 26 -15 33 -17 49 -9 63 10 19 11
18 34 -10 12 -16 55 -53 94 -82 54 -39 70 -47 65 -32 -5 16 -3 20 9 15 20 -8
21 -63 2 -70 -12 -5 -12 -13 1 -56 10 -35 11 -54 4 -61 -6 -6 -7 -16 -1 -27 5
-9 8 -25 8 -36 -2 -19 29 -74 41 -74 4 0 12 5 19 12 6 6 13 10 15 7 2 -2 29
-39 60 -83 31 -43 57 -74 57 -68 0 6 14 10 30 10 17 -1 30 -5 30 -10 0 -5 4
-7 9 -4 20 13 41 -8 57 -56 19 -59 68 -120 90 -111 10 4 17 -2 21 -16 4 -14
11 -20 20 -17 11 4 13 1 8 -15 -5 -15 1 -29 21 -50 23 -24 25 -29 11 -35 -26
-10 -12 -21 43 -34 50 -12 67 -34 35 -46 -17 -7 -21 -34 -5 -34 6 0 10 -13 10
-29 0 -17 5 -33 10 -36 8 -5 7 -11 -1 -21 -9 -11 -7 -14 9 -14 14 0 20 -5 16
-14 -7 -18 16 -32 26 -16 16 25 19 -9 5 -60 -11 -41 -12 -70 -5 -119 6 -45 6
-69 -2 -78 -6 -7 -8 -28 -5 -47 3 -19 0 -39 -6 -45 -8 -8 -8 -14 1 -23 9 -9 9
-15 0 -26 -10 -11 -9 -16 5 -23 10 -6 14 -16 10 -26 -5 -13 -2 -15 14 -11 26
7 35 -11 58 -117 10 -45 26 -90 37 -101 l19 -22 -48 -6 c-26 -4 -69 -8 -94
-10 -25 -1 -51 -6 -57 -10 -7 -4 -24 2 -38 13 -35 27 -56 26 -92 -4 -17 -14
-40 -25 -53 -25 -67 -1 -83 -23 -59 -85 20 -54 -32 -89 -64 -44 l-15 22 -28
-33 c-15 -18 -34 -42 -41 -52 -19 -27 -30 -22 -38 16 -3 19 -21 53 -40 75 -29
33 -43 41 -82 46 -59 7 -120 23 -149 37 -17 8 -36 8 -77 -2 -41 -10 -62 -10
-86 -1 -49 17 -80 13 -100 -11 -10 -13 -28 -23 -41 -23 -17 0 -25 -7 -27 -22
-2 -13 -9 -23 -17 -23 -7 0 -15 -9 -18 -20 -5 -20 -14 -20 -1106 -20 l-1101 0
0 350 0 350 -430 0 -430 0 0 1490 c0 820 2 1490 4 1490 2 0 15 -17 30 -39 25
-36 30 -39 94 -45 89 -9 172 -34 200 -59 12 -11 25 -38 28 -58 5 -29 13 -40
35 -49 15 -7 42 -25 59 -41 16 -16 39 -29 51 -29 11 0 39 -11 62 -24 l42 -24
79 19 c58 14 91 29 121 54 38 31 43 40 49 91 5 44 14 66 41 98 51 63 88 165
91 256 1 56 11 100 36 170 l35 95 -18 75 c-16 67 -16 80 -4 123 13 45 13 52
-5 88 -11 21 -20 49 -19 61 0 34 33 113 46 113 18 0 26 13 17 27 -5 7 -14 32
-20 55 -10 40 -9 44 17 69 26 25 27 25 34 5 3 -12 12 -18 20 -15 8 3 11 12 8
21 -3 8 0 19 8 25 10 7 11 11 3 14 -7 3 -10 14 -7 24 4 17 0 20 -26 20 -29 0
-46 19 -18 21 6 0 2 4 -10 9 -27 11 -29 25 -6 38 9 6 14 16 10 25 -3 9 -2 19
3 22 6 4 10 1 10 -4 0 -18 19 -12 47 14 24 21 25 25 10 31 -21 8 -23 54 -3 54
10 0 14 12 13 38 0 20 7 65 16 99 9 34 14 69 11 77 -4 10 2 17 18 21 13 3 31
19 40 35 15 26 38 41 38 24z m-2890 -167 c0 -20 -1 -20 -16 -5 -9 9 -13 21 -9
27 10 16 25 3 25 -22z m84 1 c10 16 23 15 30 -3 4 -12 -3 -15 -35 -15 -38 0
-39 1 -28 22 12 21 12 22 19 3 4 -13 9 -15 14 -7z m186 -85 c16 -27 25 -33 40
-28 15 5 18 3 14 -9 -7 -18 11 -22 21 -6 8 14 35 -6 35 -26 0 -9 13 -5 43 11
45 26 62 31 52 15 -10 -16 15 -52 32 -46 8 3 26 3 39 0 22 -6 24 -10 19 -35
-8 -34 14 -41 22 -8 4 15 11 19 27 15 53 -15 94 -18 100 -7 11 17 24 13 31 -8
3 -10 32 -29 68 -45 67 -28 82 -31 72 -16 -3 6 -1 10 6 10 6 0 9 8 6 20 -5 21
-2 23 54 24 29 1 35 -2 31 -16 -2 -9 5 -21 17 -27 17 -9 22 -8 32 10 10 20 12
21 21 5 6 -10 8 -26 5 -37 -3 -10 -1 -19 4 -19 5 0 9 -7 9 -15 0 -16 12 -20
24 -7 4 4 19 7 34 7 19 0 33 11 53 40 l28 40 -25 11 c-19 8 -21 13 -12 22 23
23 47 13 65 -25 14 -29 25 -39 47 -41 24 -3 28 -1 22 15 -6 16 -6 17 9 2 21
-21 9 -49 -21 -49 -20 0 -24 -5 -24 -30 0 -23 -7 -32 -35 -46 -40 -19 -41 -21
-17 -47 17 -20 16 -20 -13 -13 l-30 8 23 -25 c19 -20 22 -29 14 -43 -9 -16
-12 -14 -25 16 -15 33 -16 34 -22 13 -6 -18 -11 -21 -26 -13 -14 8 -20 6 -29
-10 -6 -11 -17 -20 -25 -20 -7 0 -23 -12 -35 -27 -18 -23 -21 -36 -16 -78 3
-27 12 -55 20 -60 21 -16 -9 -110 -41 -124 -14 -6 -33 -33 -47 -64 -18 -41
-30 -56 -51 -61 -24 -6 -26 -10 -20 -39 8 -40 35 -79 63 -92 12 -5 22 -13 22
-17 0 -4 7 -5 15 -2 24 10 135 -66 154 -104 10 -23 31 -42 63 -58 31 -16 48
-31 48 -43 0 -13 7 -18 28 -17 15 0 37 -3 49 -7 19 -7 22 -5 16 9 -7 19 -11
21 81 -38 33 -21 67 -38 76 -38 10 0 29 -9 44 -21 l26 -20 0 -1510 0 -1509
-1220 0 -1220 0 2 1693 c3 1496 5 1692 18 1692 10 0 15 -10 15 -30 0 -19 5
-29 12 -28 19 4 53 41 53 58 0 9 6 12 15 9 9 -4 15 0 15 7 1 8 7 0 15 -18 10
-25 18 -30 34 -26 15 4 21 13 21 32 0 35 13 53 36 50 31 -4 54 12 54 37 0 27
-3 28 -31 14 -12 -7 -19 -7 -19 -1 0 6 -7 8 -15 5 -8 -4 -15 -1 -15 5 0 6 4
11 8 11 5 0 14 11 20 25 13 27 10 30 -17 16 -24 -13 -61 -2 -61 17 0 12 -3 13
-12 4 -20 -20 -30 -14 -26 16 2 15 8 26 16 24 7 -1 15 5 18 13 4 8 12 15 20
15 8 0 14 6 14 14 0 8 7 17 16 20 11 4 15 14 12 31 -3 14 1 30 9 37 8 6 11 18
8 26 -10 27 5 54 27 48 13 -3 33 4 52 18 17 13 40 26 50 30 18 6 18 8 -7 34
-38 39 -36 80 3 93 22 8 30 17 30 34 0 36 19 40 49 10 l28 -26 8 23 c4 13 6
29 6 36 -3 17 16 15 27 -4 8 -14 12 -12 30 11 27 33 27 41 5 54 -15 9 -14 10
11 11 25 0 28 3 24 25 -5 24 -3 25 39 21 24 -2 49 -8 54 -13 6 -6 32 -6 71 0
44 6 67 6 84 -3 13 -8 30 -9 41 -5 39 18 60 14 73 -13 l13 -27 9 44 10 43 39
-6 c31 -5 39 -3 39 9 0 8 -7 15 -15 15 -18 0 -20 31 -2 49 10 11 9 15 -5 24
-16 11 -15 14 9 39 l27 28 -23 0 -23 0 23 19 c30 24 61 11 89 -36z m890 -163
c20 -13 1 -44 -30 -48 -32 -5 -44 11 -28 37 14 23 34 26 58 11z m-1548 -95
c-2 -14 -6 -25 -7 -25 -1 0 -5 11 -7 25 -3 16 -1 25 7 25 8 0 10 -9 7 -25z
m1473 -215 c3 -5 1 -10 -4 -10 -6 0 -11 5 -11 10 0 6 2 10 4 10 3 0 8 -4 11
-10z m-2475 -170 c14 -33 20 -36 38 -18 8 8 15 8 25 0 8 -7 17 -9 20 -5 4 3 7
1 7 -6 0 -6 15 -21 34 -32 19 -11 53 -49 76 -84 23 -36 46 -63 50 -60 14 9 38
-6 43 -26 3 -10 2 -19 -2 -19 -11 0 -34 -98 -26 -111 4 -6 1 -15 -6 -20 -11
-6 -11 -11 -2 -20 8 -8 9 -18 3 -30 -7 -12 -6 -20 0 -24 16 -10 40 15 40 41 0
34 19 30 27 -6 4 -21 11 -30 24 -30 23 0 23 6 4 59 -8 23 -10 39 -5 36 6 -3
10 1 10 9 0 9 6 16 13 16 6 0 20 6 29 14 15 11 15 16 3 39 -12 24 -12 27 4 27
9 0 26 -7 37 -15 10 -8 29 -15 42 -15 l22 0 0 -1308 c0 -720 -3 -1857 -7
-2526 l-6 -1217 -87 -44 c-47 -24 -153 -64 -236 -90 l-149 -46 -160 3 -160 3
-175 -101 c-101 -59 -204 -111 -245 -124 -88 -27 -117 -56 -134 -135 -11 -52
-21 -68 -73 -121 -47 -48 -64 -60 -83 -56 -13 2 -34 -3 -46 -12 -21 -14 -24
-14 -36 4 -12 16 -26 20 -78 20 -41 0 -69 -5 -77 -14 -9 -9 -21 -11 -40 -5
-22 6 -30 4 -38 -12 -15 -28 -37 -23 -55 11 -17 34 -20 34 -63 19 -25 -9 -42
-7 -83 6 -46 16 -63 16 -163 5 -75 -9 -120 -19 -137 -31 -23 -16 -34 -17 -92
-8 l-67 11 -70 -63 c-39 -34 -73 -73 -76 -86 -4 -12 -11 -23 -16 -23 -6 0 -16
-7 -22 -15 -10 -13 -17 -13 -57 -1 -46 14 -46 14 -72 -15 -14 -16 -27 -33 -29
-37 -2 -4 -20 -15 -40 -24 -23 -11 -38 -25 -40 -39 -2 -16 -13 -25 -35 -31
-18 -5 -33 -13 -33 -18 0 -20 -29 -9 -32 13 -3 21 -5 21 -36 -12 -21 -22 -38
-31 -48 -27 -10 4 -22 -1 -29 -11 -11 -15 -14 -15 -41 4 -26 18 -36 20 -91 11
-50 -7 -68 -6 -91 6 -26 14 -31 14 -42 1 -7 -8 -17 -12 -22 -9 -7 4 -6 9 1 13
7 5 0 16 -20 30 -22 16 -34 20 -43 12 -8 -7 -24 -7 -47 -1 -47 14 -51 17 -92
82 -41 64 -110 108 -170 108 -31 0 -35 4 -45 39 -14 43 -16 181 -4 181 4 0 13
-5 19 -11 24 -24 65 -5 116 54 l51 57 -13 105 c-10 91 -10 108 4 134 8 17 15
45 15 63 0 69 12 108 31 108 13 0 19 7 19 21 0 18 -4 20 -25 15 -24 -6 -25 -5
-25 42 0 39 -15 80 -91 237 -104 220 -123 289 -112 422 8 105 -14 185 -69 261
-22 29 -38 61 -35 70 5 25 -20 70 -77 136 l-51 59 -1 76 c-1 96 -29 169 -101
272 l-53 77 30 12 c37 15 50 37 50 82 l0 33 22 -34 22 -33 28 33 c25 29 28 40
24 77 -5 34 -3 42 10 42 12 0 15 6 10 23 -3 12 -6 28 -6 35 0 6 -7 12 -15 12
-9 0 -35 40 -65 98 -27 53 -59 109 -71 123 -11 14 -21 41 -21 59 -1 19 -16 58
-34 90 -33 55 -33 56 -25 131 7 67 13 83 50 133 42 56 42 58 45 153 2 73 -1
107 -15 142 l-17 47 39 94 c34 82 64 128 76 116 2 -1 -4 -22 -12 -46 -8 -24
-13 -52 -10 -62 4 -10 6 -36 7 -58 0 -44 1 -45 29 -29 15 7 24 7 34 -1 10 -8
18 -5 34 16 12 15 22 32 22 38 5 44 20 84 35 90 8 3 14 16 14 30 0 33 37 55
147 85 81 23 94 30 115 61 13 19 33 36 45 38 12 2 26 15 33 31 6 15 27 35 46
44 19 10 37 24 40 32 4 8 13 15 20 15 8 0 32 9 54 20 22 11 49 20 60 20 12 0
18 5 15 10 -8 13 -2 13 29 -1 19 -9 29 -8 47 5 19 13 26 13 38 3 34 -28 66
-35 92 -21 13 7 34 13 45 14 12 0 33 9 47 20 14 11 30 20 35 20 5 0 12 9 15
20 6 24 4 23 135 46 100 17 104 19 134 57 21 27 37 37 49 34 11 -3 19 -1 19 4
0 15 44 10 68 -7 21 -14 25 -14 56 5 19 12 50 21 73 21 52 0 105 17 233 74 91
41 110 54 145 98 64 81 105 150 105 175 0 16 6 23 20 23 21 0 27 15 9 25 -12
8 17 45 35 45 6 0 42 23 79 51 53 39 68 55 65 72 -2 15 -11 23 -29 25 -24 3
-27 8 -27 40 0 20 -3 62 -7 92 -6 50 -5 57 18 79 14 13 23 29 20 37 -6 17 42
37 70 28 16 -5 19 -3 14 10 -4 9 -10 23 -14 32 -5 15 0 16 40 12 51 -6 55 -3
31 23 -14 16 -14 20 1 48 19 37 28 40 19 7 -4 -17 1 -28 20 -44 15 -11 26 -30
26 -44 0 -14 11 -35 24 -47 13 -13 27 -37 30 -55 4 -19 23 -48 46 -71 l40 -39
0 31 c0 50 9 64 32 52 18 -10 18 -8 -3 33 l-21 43 40 -39 c43 -41 73 -42 47
-2 -18 27 -15 58 8 84 21 23 21 28 1 36 -10 4 -22 -1 -30 -11 -12 -17 -13 -16
-23 10 -6 15 -17 27 -26 27 -19 0 -19 14 0 30 8 7 12 16 9 21 -3 5 2 9 11 9
13 0 14 4 5 20 -13 24 -5 25 32 6 25 -13 29 -13 38 2 9 15 12 14 34 -10 28
-32 37 -33 101 -16 33 9 51 9 63 2 19 -12 62 -1 62 16 0 5 -10 10 -22 10 -34
0 -102 26 -86 32 8 4 15 23 16 49 2 33 9 49 28 65 l26 21 -28 7 c-24 6 -32 3
-50 -19 l-21 -27 -7 28 c-6 21 -3 31 10 41 11 8 13 13 5 13 -7 0 -9 5 -6 10 3
6 17 10 30 10 14 0 29 9 35 20 16 29 54 26 69 -6 9 -20 14 -24 25 -15 10 8 16
7 26 -4 7 -8 16 -15 21 -15 17 0 9 29 -11 43 -18 13 -19 16 -5 27 14 11 13 14
-5 27 -11 8 -26 11 -33 7 -7 -5 -6 -1 3 10 8 11 16 14 18 7 3 -8 9 -8 24 0 14
8 23 8 31 0 16 -16 57 -14 57 3 0 8 -6 16 -12 19 -10 3 -10 8 1 21 13 15 13
19 0 27 -8 4 -23 6 -34 2 -20 -6 -20 -5 -1 16 19 21 19 21 -7 21 -14 0 -28 4
-31 9 -7 11 40 32 58 25 9 -3 17 3 21 16 6 20 8 20 24 6 23 -21 28 -20 34 4 3
11 10 20 17 20 6 0 9 -4 6 -9 -3 -4 6 -19 19 -31 l25 -23 0 26 c0 20 5 27 20
27 16 0 19 5 14 24 -3 13 -1 27 5 30 5 4 8 13 5 20 -7 18 16 32 26 17 5 -9 13
-9 33 0 27 12 36 29 16 29 -5 0 -7 5 -3 12 6 9 9 9 12 0 2 -7 10 -12 18 -12 8
0 20 -11 26 -25 13 -29 28 -33 28 -7 1 25 35 62 59 62 27 0 27 16 -1 31 -22
12 -22 12 -3 20 34 13 42 10 55 -21z m330 -279 c0 -6 -5 -13 -11 -17 -6 -4 -9
-19 -5 -36 5 -26 4 -29 -9 -18 -18 15 -19 34 -5 61 11 20 30 26 30 10z m-841
-30 c9 -6 10 -11 2 -15 -13 -8 -31 1 -31 15 0 11 11 11 29 0z m7731 -3037
c-25 -73 -35 -93 -42 -81 -6 11 -4 33 7 62 8 25 15 50 15 56 0 15 41 71 47 65
3 -3 -9 -48 -27 -102z m-53 4 c-3 -8 -6 -5 -6 6 -1 11 2 17 5 13 3 -3 4 -12 1
-19z m-10889 -117 c26 -45 32 -136 8 -111 -15 16 -47 150 -36 150 3 0 16 -17
28 -39z m-139 -56 c0 -5 -6 1 -14 15 -8 14 -14 30 -14 35 0 6 6 -1 14 -15 8
-14 14 -29 14 -35z m211 -85 c0 -13 -5 -18 -15 -14 -12 5 -13 10 -4 20 15 19
19 18 19 -6z m-90 -111 c0 -6 -4 -7 -10 -4 -5 3 -10 11 -10 16 0 6 5 7 10 4 6
-3 10 -11 10 -16z m7570 -1879 l0 -1860 -36 0 c-34 0 -104 33 -104 49 0 4 -38
58 -84 120 -54 73 -82 120 -79 131 3 10 0 28 -7 39 -9 18 -7 26 9 48 27 34 26
66 -3 140 -13 34 -22 64 -19 66 8 9 -55 122 -84 148 -55 50 -150 118 -174 124
-17 4 -33 0 -51 -14 -18 -15 -41 -21 -74 -21 l-48 0 42 43 c41 42 42 44 42
112 0 49 5 73 16 86 15 17 11 26 -52 138 -38 66 -72 121 -75 121 -12 0 -69
-144 -69 -176 0 -18 -11 -59 -25 -90 -14 -31 -22 -60 -19 -65 7 -12 -20 -11
-50 2 -21 10 -29 8 -59 -15 -19 -15 -51 -30 -71 -33 l-35 -5 17 52 16 52 37
-6 c21 -3 44 -9 52 -12 10 -3 22 4 33 21 14 22 18 51 20 144 2 144 16 187 87
259 l51 52 -24 45 -24 45 34 35 c32 33 33 36 17 53 -9 10 -17 32 -17 49 0 37
-48 145 -61 138 -5 -4 -9 -40 -9 -81 0 -64 -2 -74 -18 -74 -28 0 -76 -72 -102
-155 -19 -61 -29 -79 -49 -86 -16 -6 -28 -6 -35 1 -15 15 -22 12 -34 -15 -6
-13 -29 -33 -50 -44 -44 -23 -172 -163 -172 -190 0 -10 -11 -23 -24 -29 -17
-7 -27 -22 -31 -45 -4 -18 -17 -47 -30 -63 l-23 -29 -22 20 c-38 35 -44 54
-18 64 20 8 21 10 6 16 -26 10 -53 72 -73 163 -17 78 -21 86 -67 126 -34 32
-48 52 -48 71 0 14 -11 41 -26 60 -17 23 -21 35 -14 40 20 12 -4 24 -53 27
-35 2 -49 8 -53 21 -4 12 -12 17 -25 14 -15 -4 -17 -2 -9 13 7 13 6 20 -6 24
-14 5 -12 10 10 33 31 30 31 32 9 78 -18 39 -41 50 -81 41 -24 -6 -25 -5 -10
7 16 12 12 19 -41 71 -37 36 -61 54 -65 47 -4 -6 -11 -9 -16 -6 -14 9 -41 -7
-36 -21 4 -10 -4 -14 -30 -14 -28 0 -47 10 -88 45 -45 38 -60 45 -95 45 -28 0
-44 -5 -47 -15 -11 -27 -52 -16 -116 33 -35 26 -103 69 -151 95 l-88 48 -47
-26 c-44 -25 -52 -26 -137 -20 -57 4 -143 0 -234 -10 -79 -8 -152 -15 -162
-15 -18 0 -19 22 -19 790 l0 790 1650 0 1650 0 0 -1860z m3256 1319 c13 -14
21 -16 35 -8 11 5 35 7 54 3 25 -4 43 -1 61 10 14 10 37 16 52 14 24 -3 27 -7
24 -35 -2 -18 3 -42 11 -53 20 -28 6 -90 -39 -176 -27 -52 -33 -74 -28 -99 8
-45 -11 -132 -53 -240 -33 -85 -35 -95 -29 -175 6 -79 3 -94 -33 -212 -32
-104 -45 -133 -69 -153 -17 -14 -33 -39 -37 -55 -5 -21 -13 -30 -26 -30 -27 0
-24 -18 6 -32 33 -15 32 -43 -2 -65 -16 -9 -35 -25 -44 -36 -16 -20 -61 -27
-89 -14 -12 6 -15 1 -14 -21 0 -16 4 -34 8 -40 4 -7 -4 -9 -27 -5 -31 5 -33 3
-32 -24 0 -21 -4 -27 -17 -25 -11 2 -18 -3 -18 -13 0 -8 -6 -15 -14 -15 -12 0
-13 -7 -5 -32 5 -18 9 -34 9 -35 0 -2 -12 -3 -27 -3 -21 0 -24 -3 -15 -12 7
-7 12 -23 12 -37 0 -19 -3 -22 -12 -13 -16 16 -28 15 -28 -3 0 -13 -4 -14 -22
-4 -19 10 -20 9 -13 -7 4 -11 10 -29 12 -41 3 -13 9 -23 14 -23 5 0 9 -5 9
-11 0 -6 -9 -8 -21 -4 -15 5 -19 4 -14 -4 4 -7 2 -18 -5 -26 -7 -9 -8 -15 0
-20 17 -11 11 -25 -11 -25 -15 0 -19 -5 -15 -15 3 -10 -1 -15 -12 -15 -13 -1
-12 -3 6 -13 l22 -13 -30 -29 c-17 -17 -30 -39 -30 -53 0 -14 -8 -30 -17 -37
-14 -10 -15 -16 -5 -28 21 -25 -2 -65 -50 -84 -41 -16 -41 -17 -16 -25 19 -7
25 -14 21 -27 -3 -11 0 -28 6 -39 9 -17 7 -21 -18 -30 -23 -8 -34 -24 -61 -91
-30 -75 -34 -80 -56 -75 -27 7 -32 -7 -8 -27 14 -12 13 -16 -12 -37 -16 -13
-24 -26 -19 -28 13 -5 10 -147 -4 -204 -25 -93 -32 -109 -47 -103 -12 4 -13 1
-4 -23 6 -15 8 -40 5 -56 -5 -21 -3 -28 9 -28 20 0 31 -19 17 -33 -6 -6 -11
-28 -11 -48 0 -37 0 -38 -32 -28 -17 5 -36 13 -42 19 -5 5 -24 10 -41 10 -18
0 -97 32 -197 82 l-168 82 0 41 c0 26 -10 57 -30 90 -16 28 -30 64 -30 82 0
42 -50 76 -89 61 -55 -21 -162 -48 -193 -48 -18 0 -52 9 -74 19 -36 17 -45 17
-65 5 -13 -7 -30 -16 -38 -20 -8 -4 -37 0 -64 10 -27 10 -51 15 -54 12 -3 -3
-22 1 -41 10 -20 8 -54 14 -76 14 -23 -1 -55 2 -73 5 -26 6 -34 3 -48 -18 -10
-16 -14 -34 -9 -51 5 -23 3 -26 -17 -26 -42 1 -113 44 -131 79 -36 72 -126
141 -183 141 -36 0 -81 67 -96 140 -13 68 -24 75 -129 85 -58 5 -69 3 -93 -15
-29 -23 -28 -25 -47 45 -18 66 -65 96 -168 110 -73 10 -91 10 -109 -2 -19 -12
-25 -12 -52 1 -16 9 -41 16 -56 16 l-25 0 0 920 0 920 1098 0 1099 0 36 28
c20 15 36 35 37 45 0 10 8 17 19 17 11 0 28 11 38 25 18 26 19 26 75 11 47
-12 63 -12 99 -2 24 7 51 10 59 6 41 -20 90 -33 143 -39 48 -6 62 -12 82 -36
14 -17 28 -41 31 -55 4 -14 13 -38 21 -53 13 -25 15 -26 34 -13 12 8 32 30 45
49 23 35 24 35 53 21 37 -18 68 -6 96 39 29 47 29 47 6 47 -15 0 -21 6 -21 24
0 19 7 25 38 30 20 3 50 17 66 30 31 26 55 24 82 -5z m-3157 -2048 c35 -18 40
-19 60 -4 19 13 33 14 99 4 94 -14 136 -43 153 -104 10 -39 52 -97 71 -97 4 0
8 11 8 25 0 13 8 28 18 33 19 11 140 -1 151 -15 4 -4 13 -32 19 -61 15 -67 67
-142 97 -142 60 0 168 -78 180 -129 10 -48 111 -99 176 -89 19 2 23 9 23 43
l1 40 70 0 c39 0 82 -6 97 -12 15 -7 37 -13 48 -13 12 0 43 -7 70 -16 47 -15
49 -15 79 7 29 22 33 22 64 7 59 -28 91 -30 168 -9 41 10 86 24 102 30 43 17
75 -3 74 -44 -1 -21 10 -49 28 -77 23 -33 30 -54 29 -89 l0 -46 173 -87 c95
-47 186 -86 201 -86 18 0 38 -10 52 -25 l24 -25 -35 -30 c-19 -16 -43 -29 -54
-30 -11 0 -90 -7 -174 -15 -107 -10 -157 -12 -161 -4 -5 7 -20 5 -47 -6 -30
-12 -46 -13 -67 -5 -37 14 -39 13 -33 -11 4 -16 -2 -25 -29 -41 -25 -14 -32
-24 -25 -32 7 -9 -13 -35 -72 -94 -91 -90 -134 -112 -224 -112 -52 0 -54 -1
-48 -22 4 -13 9 -32 11 -43 4 -18 3 -18 -7 1 -10 19 -15 21 -46 12 -27 -7 -38
-7 -44 3 -4 8 -4 16 1 19 6 4 4 15 -5 26 -10 15 -22 20 -43 16 -58 -8 -115 61
-62 75 23 6 24 9 9 52 -10 28 -15 31 -50 31 -34 0 -39 -3 -39 -22 0 -30 -8
-39 -47 -60 -27 -14 -34 -14 -44 -2 -9 11 -8 14 4 14 8 0 29 18 47 39 l31 40
-31 61 c-20 40 -35 58 -43 54 -7 -4 -35 -25 -63 -46 -35 -26 -61 -38 -85 -38
l-34 -1 30 -25 c20 -16 37 -23 53 -19 12 3 22 1 22 -5 0 -5 -13 -10 -30 -10
-37 0 -112 -51 -201 -138 l-67 -64 -160 86 c-146 79 -164 86 -200 80 -30 -5
-50 0 -89 19 l-50 26 -27 -28 c-28 -29 -66 -32 -66 -5 0 7 -27 35 -60 61 l-60
48 0 567 c0 572 0 574 33 577 4 1 25 -8 46 -18z m-1469 -45 c0 -8 -4 -17 -9
-21 -12 -7 -24 12 -16 25 9 15 25 12 25 -4z m2504 -1095 c18 -39 18 -40 -4
-71 -14 -19 -28 -29 -37 -26 -8 3 -22 6 -30 6 -12 0 -14 7 -8 36 6 36 6 36
-22 29 -32 -8 -32 -8 27 38 25 19 48 33 51 31 3 -2 14 -21 23 -43z m388 -332
c-8 -34 -8 -34 -21 -11 -11 20 -10 26 6 37 24 18 26 14 15 -26z"/>
<path d="M10143 3136 c-17 -8 -36 -23 -42 -35 -36 -65 27 -206 83 -185 14 5
46 62 46 81 0 4 11 25 25 45 28 41 32 70 12 86 -23 19 -90 23 -124 8z m106
-25 c10 -7 7 -21 -20 -72 -18 -35 -36 -71 -39 -79 -20 -44 -64 4 -77 84 -4 27
-1 37 22 54 29 23 88 29 114 13z"/>
<path d="M5117 10467 c4 -18 -4 -29 -37 -52 -28 -19 -38 -31 -30 -39 5 -5 10
-19 10 -29 0 -15 -3 -17 -14 -8 -11 9 -15 5 -20 -20 -3 -18 -5 -33 -4 -34 2
-2 42 -6 91 -10 63 -5 87 -4 87 5 0 6 18 0 42 -14 l43 -25 45 26 c25 15 51 35
58 45 7 10 22 18 33 18 12 0 19 7 19 19 0 11 6 21 13 24 18 6 -14 59 -47 75
-14 7 -26 18 -26 24 0 7 -5 6 -15 -2 -8 -6 -19 -9 -25 -5 -5 3 -10 -1 -10 -9
0 -9 -6 -16 -12 -17 -7 0 -34 -2 -61 -4 -39 -3 -55 1 -91 25 -53 36 -54 36
-49 7z m60 -51 c-7 -18 3 -30 43 -55 46 -27 56 -27 36 4 -22 34 -20 45 10 45
17 0 28 -6 31 -20 3 -11 9 -20 14 -20 5 0 9 9 9 20 0 23 18 27 26 5 10 -25 27
-17 22 10 -4 21 -1 25 17 25 12 0 28 -7 35 -15 14 -17 9 -26 -57 -92 -57 -56
-73 -60 -127 -28 -39 23 -45 24 -53 10 -7 -12 -18 -14 -51 -9 -51 8 -56 30 -9
42 34 9 37 18 24 80 -6 30 -5 32 14 21 11 -6 18 -16 16 -23z m-57 -16 c0 -17
-23 -60 -32 -60 -5 0 -4 9 2 20 8 15 8 20 -1 20 -8 0 -8 4 1 15 14 17 30 20
30 5z"/>
<path d="M6843 9773 c-14 -3 -20 -9 -16 -18 3 -10 -5 -18 -22 -25 -26 -10 -27
-14 -23 -55 3 -24 1 -48 -4 -53 -14 -14 -1 -32 17 -25 9 3 26 -2 40 -11 13 -9
45 -16 70 -16 48 0 52 7 39 58 -6 20 -8 21 -19 6 -6 -10 -17 -14 -23 -10 -17
10 -15 26 4 26 10 0 13 6 9 19 -4 13 2 25 20 38 l26 19 -26 14 c-23 12 -28 12
-35 0 -10 -16 -14 -8 -11 23 2 17 -4 18 -46 10z m34 -69 c13 -13 14 -20 5 -35
-20 -32 -14 -57 16 -67 24 -9 25 -11 5 -11 -42 -2 -91 29 -97 62 -9 46 -7 55
12 60 32 9 43 7 59 -9z"/>
<path d="M7620 8989 c-25 -10 -80 -57 -80 -69 0 -3 14 -14 30 -23 27 -17 31
-17 36 -2 4 9 12 14 20 11 7 -3 18 2 24 10 7 8 20 14 29 14 9 0 23 5 31 10 12
7 11 13 -10 34 -25 28 -40 31 -80 15z m30 -23 c0 -17 -15 -36 -29 -36 -9 0
-22 -5 -28 -11 -7 -7 -13 -7 -17 -1 -7 12 40 52 60 52 8 0 14 -2 14 -4z"/>
<path d="M6980 3059 c-169 -37 -190 -58 -132 -126 l28 -33 64 11 c35 5 66 12
70 14 3 2 25 -5 48 -15 l42 -19 27 35 c26 31 33 34 80 34 41 0 54 4 63 19 14
27 14 27 -19 40 -34 14 -56 19 -93 20 -25 1 -27 3 -18 26 12 32 13 32 -160 -6z
m127 -19 c-4 -17 0 -20 24 -20 22 0 29 -5 29 -20 0 -11 -7 -20 -15 -20 -9 0
-20 -11 -25 -25 -13 -34 -32 -40 -70 -20 -25 13 -38 14 -62 6 -53 -19 -102
-14 -127 12 -32 35 -19 54 47 67 32 7 82 18 112 25 81 19 93 19 87 -5z m127
-36 c26 -10 18 -24 -14 -24 -29 0 -38 9 -23 23 8 9 17 9 37 1z"/>
<path d="M8859 1668 c-11 -24 -14 -54 -11 -105 5 -92 20 -108 62 -68 27 26 30
35 30 91 0 56 -3 66 -27 89 -15 14 -30 25 -34 25 -3 0 -12 -15 -20 -32z m59
-78 c4 -39 1 -55 -13 -70 -10 -11 -22 -20 -27 -20 -9 0 -11 130 -2 155 12 30
36 -8 42 -65z"/>
<path d="M9951 1615 c-34 -39 -39 -55 -16 -55 8 0 15 -8 15 -18 0 -10 11 -29
25 -42 14 -13 25 -29 25 -35 0 -6 6 -19 13 -28 11 -16 15 -16 54 -1 39 16 41
17 31 45 -6 16 -7 41 -4 54 5 21 3 25 -17 25 -17 0 -35 14 -59 45 l-36 45 -31
-35z m72 -47 c29 -32 37 -47 32 -65 -4 -16 -1 -23 10 -23 23 0 18 -17 -7 -23
-25 -7 -38 -1 -38 17 0 7 -9 21 -20 31 -11 10 -20 29 -20 42 0 13 -7 26 -15
29 -12 5 -13 10 -4 20 16 20 19 19 62 -28z"/>
<path d="M10038 1409 c-48 -25 -48 -39 -2 -39 22 0 41 -6 48 -16 11 -14 14
-14 35 3 23 19 23 20 6 46 -20 32 -37 33 -87 6z m66 -15 c4 -9 4 -19 1 -22 -3
-3 -5 0 -5 6 0 7 -10 12 -22 12 -19 0 -20 2 -8 10 21 14 27 12 34 -6z"/>
<path d="M9075 1271 c4 -24 2 -54 -6 -75 -17 -48 10 -168 51 -222 18 -25 25
-43 19 -50 -6 -7 7 -31 36 -69 30 -38 45 -67 45 -87 0 -19 -4 -27 -11 -22 -8
4 -9 -3 -5 -22 3 -16 10 -58 16 -94 7 -40 18 -69 29 -76 10 -7 26 -39 35 -72
14 -44 25 -63 43 -71 14 -6 32 -30 44 -58 11 -25 26 -51 33 -57 8 -6 19 -28
26 -49 11 -36 14 -38 39 -31 14 4 51 7 81 6 44 0 58 -5 69 -21 9 -14 24 -21
46 -21 27 0 37 6 56 36 12 20 25 50 29 68 5 24 11 30 28 29 20 -3 22 2 22 43
0 40 2 45 19 39 11 -3 22 -1 26 5 3 5 16 15 27 21 18 10 20 9 15 -5 -4 -10 -2
-22 3 -29 6 -7 19 -23 29 -37 17 -22 22 -23 40 -13 13 8 22 9 26 3 10 -16 26
-1 21 18 -2 10 -7 30 -11 45 -5 25 -9 28 -31 23 -30 -8 -47 21 -20 36 28 16
58 85 46 108 -8 14 -7 21 5 27 10 6 16 29 19 72 4 68 13 85 42 79 13 -2 20
-14 22 -38 l4 -34 18 23 c16 22 16 27 3 60 -12 27 -14 56 -10 114 4 42 2 88
-3 102 -6 17 -5 37 5 64 12 34 12 41 0 51 -12 10 -12 17 0 46 13 32 13 34 -27
84 -31 39 -46 50 -69 50 -16 0 -29 -3 -29 -7 0 -5 -4 -14 -9 -22 -7 -10 -13
-11 -31 -1 -20 11 -25 8 -52 -24 -28 -34 -32 -36 -52 -23 -19 13 -24 13 -45
-4 -15 -12 -28 -16 -38 -10 -14 8 -103 -19 -128 -39 -5 -4 -31 -10 -56 -14
-45 -7 -52 -4 -145 54 -56 34 -110 60 -125 60 -18 0 -28 6 -32 20 -6 22 -27
28 -27 7 0 -21 -49 -13 -108 17 l-54 27 7 -40z m169 -48 c52 -2 72 -11 163
-64 93 -55 108 -61 142 -55 29 4 40 2 45 -9 8 -22 26 -18 26 4 0 34 21 34 55
1 32 -31 33 -31 40 -10 4 14 1 28 -10 40 -20 22 -5 35 32 25 16 -4 34 0 49 10
19 12 27 13 44 3 17 -11 24 -8 54 21 29 28 37 31 54 22 29 -15 31 -14 42 14
13 35 32 31 70 -16 31 -39 32 -44 21 -76 -10 -26 -10 -37 -1 -48 9 -11 9 -23
0 -49 -6 -20 -8 -46 -4 -58 4 -13 6 -48 5 -79 -1 -45 -7 -63 -27 -86 -37 -42
-87 -153 -69 -153 22 0 18 -38 -5 -50 -17 -9 -18 -14 -8 -35 9 -21 8 -32 -5
-60 -19 -39 -32 -44 -46 -16 -6 10 -22 21 -36 24 -24 4 -26 2 -21 -19 10 -37
-10 -37 -39 1 -33 44 -53 36 -25 -9 24 -40 26 -62 5 -70 -10 -3 -15 -19 -15
-47 l0 -42 -26 27 c-15 14 -31 26 -35 26 -13 0 -11 -34 4 -49 10 -10 8 -14 -7
-23 -19 -11 -19 -11 0 -25 18 -14 17 -15 -14 -11 l-32 5 21 -23 c18 -19 19
-25 7 -43 -19 -31 -53 -27 -68 9 -13 30 -24 37 -34 21 -3 -5 -25 -6 -49 -4
-24 3 -53 0 -65 -6 -24 -13 -36 -1 -27 28 4 13 12 17 31 13 16 -3 30 1 35 9
15 24 10 29 -30 29 -35 0 -40 3 -51 33 l-11 32 -14 -25 -14 -25 -16 40 c-9 22
-28 47 -43 56 -20 11 -32 32 -46 74 -10 33 -24 64 -32 70 -14 11 -36 115 -23
115 13 0 49 -52 49 -71 0 -34 28 -20 35 17 5 29 3 39 -13 50 -11 7 -25 27 -32
44 -8 19 -18 29 -26 26 -10 -4 -14 3 -14 23 0 19 -14 47 -40 80 -22 28 -37 56
-34 65 3 8 -8 33 -24 55 -39 53 -69 172 -53 207 6 14 11 38 11 55 l0 29 43
-21 c25 -14 66 -24 101 -26z m656 -769 c0 -8 -4 -14 -10 -14 -5 0 -10 9 -10
21 0 11 5 17 10 14 6 -3 10 -13 10 -21z m50 -86 c0 -16 -3 -19 -11 -11 -6 6
-8 16 -5 22 11 17 16 13 16 -11z"/>
</g>
</svg>
