<?xml version="1.0" standalone="no"?>
<!DOCTYPE svg PUBLIC "-//W3C//DTD SVG 20010904//EN"
 "http://www.w3.org/TR/2001/REC-SVG-20010904/DTD/svg10.dtd">
<svg version="1.0" xmlns="http://www.w3.org/2000/svg"
 width="48.000000pt" height="48.000000pt" viewBox="0 0 48.000000 48.000000"
 preserveAspectRatio="xMidYMid meet">

<g transform="translate(0.000000,48.000000) scale(0.100000,-0.100000)"
fill="#000000" stroke="none">
<path d="M195 429 c-22 -5 -57 -14 -78 -20 l-38 -10 3 -147 3 -147 37 -9 c22
-5 38 -16 41 -27 9 -32 51 -33 144 -2 l88 30 3 132 3 133 -23 -8 c-115 -37
-188 -46 -188 -24 0 8 106 40 133 40 9 0 17 4 17 10 0 19 -47 20 -124 1 -76
-18 -106 -18 -106 -1 0 5 34 16 75 25 41 9 75 21 75 26 0 11 -11 10 -65 -2z
m183 -176 c-3 -23 -11 -29 -63 -45 -77 -23 -77 -23 -73 9 3 23 11 30 58 44 77
24 82 23 78 -8z"/>
</g>
</svg>
