<?xml version="1.0" standalone="no"?>
<!DOCTYPE svg PUBLIC "-//W3C//DTD SVG 20010904//EN"
 "http://www.w3.org/TR/2001/REC-SVG-20010904/DTD/svg10.dtd">
<svg version="1.0" xmlns="http://www.w3.org/2000/svg"
 width="1024.000000pt" height="1024.000000pt" viewBox="0 0 1024.000000 1024.000000"
 preserveAspectRatio="xMidYMid meet">

<g transform="translate(0.000000,1024.000000) scale(0.100000,-0.100000)"
fill="#000000" stroke="none">
<path d="M4880 10050 c-1205 -58 -2343 -556 -3209 -1405 -863 -845 -1367
-1921 -1472 -3140 -14 -168 -14 -603 0 -770 123 -1416 793 -2653 1906 -3520
678 -528 1523 -880 2380 -989 312 -40 734 -51 1020 -27 1215 104 2298 611
3140 1472 818 836 1294 1882 1396 3064 14 167 14 603 0 770 -75 870 -348 1653
-823 2363 -497 742 -1223 1362 -2028 1732 -590 271 -1187 416 -1855 450 -216
11 -224 11 -455 0z m660 -1185 c1004 -115 1900 -611 2535 -1405 85 -106 258
-363 327 -485 602 -1064 646 -2376 118 -3483 -241 -503 -606 -962 -1050 -1319
-114 -91 -367 -263 -495 -335 -1063 -602 -2376 -646 -3483 -118 -765 366
-1406 1007 -1772 1772 -381 799 -468 1697 -249 2570 63 254 161 512 289 763
452 891 1242 1568 2196 1880 277 91 659 162 959 179 131 7 490 -4 625 -19z"/>
<path d="M5764 5586 c-769 -757 -1401 -1375 -1405 -1374 -4 2 -255 260 -559
573 -304 314 -589 607 -634 653 l-82 83 -414 -403 c-228 -222 -415 -405 -415
-409 0 -3 470 -490 1044 -1081 l1045 -1077 645 637 c355 351 1174 1156 1819
1791 l1172 1153 -249 257 c-137 141 -321 327 -409 415 l-160 158 -1398 -1376z"/>
</g>
</svg>
