<?xml version="1.0" standalone="no"?>
<!DOCTYPE svg PUBLIC "-//W3C//DTD SVG 20010904//EN"
 "http://www.w3.org/TR/2001/REC-SVG-20010904/DTD/svg10.dtd">
<svg version="1.0" xmlns="http://www.w3.org/2000/svg"
 width="1486.000000pt" height="1120.000000pt" viewBox="0 0 1486.000000 1120.000000"
 preserveAspectRatio="xMidYMid meet">

<g transform="translate(0.000000,1120.000000) scale(0.100000,-0.100000)"
fill="#000000" stroke="none">
<path d="M5640 9405 c-235 -66 -406 -253 -503 -550 -41 -123 -55 -198 -68
-348 -46 -537 195 -1107 562 -1329 82 -50 203 -88 279 -88 59 0 59 0 65 -32
17 -102 27 -166 45 -283 32 -210 28 -197 50 -185 11 6 40 12 65 14 26 2 48 6
50 8 2 2 -5 63 -15 135 -11 73 -24 174 -30 225 -6 51 -12 104 -15 118 -5 23 1
29 58 57 221 109 386 381 443 733 18 107 20 333 5 451 -46 351 -182 659 -381
860 -144 145 -293 218 -460 225 -66 3 -112 -1 -150 -11z m227 -139 c85 -23
154 -60 226 -121 186 -159 310 -389 379 -705 20 -92 23 -132 23 -320 -1 -184
-4 -228 -22 -307 -40 -171 -121 -339 -201 -416 l-40 -39 -107 322 -107 322 25
26 c23 26 47 80 47 108 0 10 -17 14 -62 14 -61 0 -242 -25 -259 -36 -23 -14
53 -104 104 -123 l27 -11 0 -376 0 -376 -32 7 c-113 24 -191 68 -289 163 -259
246 -407 691 -369 1108 14 160 32 243 80 361 49 121 92 193 165 268 116 121
268 169 412 131z"/>
<path d="M5675 9067 c-167 -56 -255 -184 -255 -376 l0 -73 28 6 c67 17 156 68
205 120 52 54 97 128 97 160 0 26 13 17 57 -39 79 -101 220 -184 311 -185 49
0 51 6 26 91 -23 78 -47 119 -103 181 -68 75 -154 116 -252 123 -47 3 -88 0
-114 -8z"/>
<path d="M4302 9222 c-71 -25 -136 -90 -162 -160 -11 -29 -20 -63 -20 -76 0
-22 2 -23 48 -15 97 18 168 60 211 125 l29 44 13 -32 c21 -52 119 -143 174
-162 77 -26 79 -24 71 40 -21 182 -196 296 -364 236z"/>
<path d="M8093 8989 c-93 -18 -192 -100 -212 -176 -20 -73 -23 -101 -13 -107
17 -10 114 14 159 40 37 21 99 89 117 127 5 9 8 9 12 -1 32 -70 135 -154 210
-173 40 -10 43 -14 49 -53 28 -169 219 -239 340 -122 88 85 85 211 -8 293 -95
83 -249 57 -305 -53 l-18 -36 -17 59 c-8 32 -28 75 -44 95 -38 49 -109 95
-158 103 -22 4 -47 8 -55 10 -8 1 -34 -1 -57 -6z"/>
<path d="M11845 8717 c-102 -40 -155 -98 -183 -199 -6 -21 -9 -38 -8 -38 2 0
28 9 58 19 103 35 172 92 207 170 l19 44 11 -40 c18 -67 63 -118 133 -151 71
-34 118 -47 118 -33 0 34 -46 123 -81 159 -70 70 -192 101 -274 69z"/>
<path d="M4308 8594 c-16 -5 -16 -8 -3 -34 8 -15 27 -37 41 -48 l27 -19 -57
-288 c-32 -158 -54 -290 -51 -293 9 -9 255 -9 276 0 14 5 11 38 -29 293 l-44
288 25 21 c28 23 52 65 43 73 -8 8 -206 13 -228 7z"/>
<path d="M8303 8125 c-171 -46 -354 -199 -501 -416 -72 -108 -144 -184 -203
-215 l-34 -17 38 -11 c62 -18 100 -58 205 -214 118 -175 180 -246 280 -320
216 -160 485 -186 721 -71 79 39 188 144 225 216 75 150 75 401 0 602 -84 224
-258 396 -449 446 -73 19 -212 19 -282 0z"/>
<path d="M7170 7862 c-77 -94 -93 -204 -42 -303 l27 -54 47 3 c40 3 51 0 73
-22 31 -31 33 -74 5 -109 -23 -29 -51 -36 -94 -25 -72 19 -129 -81 -96 -168
10 -25 13 -26 68 -22 120 9 246 98 298 210 26 56 29 74 29 158 0 73 -5 106
-19 140 -45 103 -125 179 -224 214 l-41 15 -31 -37z"/>
<path d="M7887 6494 c-3 -3 6 -32 20 -63 74 -164 100 -352 69 -515 -10 -50
-21 -97 -26 -105 -7 -14 8 -16 136 -13 l144 3 -6 27 c-57 240 -163 481 -274
621 -39 50 -50 57 -63 45z"/>
<path d="M7195 6053 c3 -38 12 -214 20 -392 9 -178 18 -327 20 -332 6 -9 133
-24 141 -17 6 7 -29 230 -60 384 -45 221 -101 424 -116 424 -6 0 -8 -27 -5
-67z"/>
<path d="M6260 5466 c0 -29 77 -881 86 -943 3 -24 9 -43 15 -43 5 0 9 197 9
505 l0 505 -55 0 c-52 0 -55 -2 -55 -24z"/>
</g>
</svg>
