<?xml version="1.0" standalone="no"?>
<!DOCTYPE svg PUBLIC "-//W3C//DTD SVG 20010904//EN"
 "http://www.w3.org/TR/2001/REC-SVG-20010904/DTD/svg10.dtd">
<svg version="1.0" xmlns="http://www.w3.org/2000/svg"
 width="1553.000000pt" height="1161.000000pt" viewBox="0 0 1553.000000 1161.000000"
 preserveAspectRatio="xMidYMid meet">

<g transform="translate(0.000000,1161.000000) scale(0.100000,-0.100000)"
fill="#000000" stroke="none">
<path d="M10062 8929 c2 -6 21 -17 42 -24 21 -7 51 -25 66 -40 15 -15 30 -22
34 -17 8 13 -43 58 -86 76 -44 19 -61 20 -56 5z"/>
<path d="M10092 8828 c-7 -7 -12 -25 -12 -41 0 -39 34 -34 38 7 4 34 -9 51
-26 34z"/>
<path d="M5140 8798 c-98 -42 -211 -68 -295 -68 -95 0 -126 -16 -145 -75 -20
-61 23 -115 104 -130 26 -4 54 -21 88 -53 56 -52 88 -103 112 -179 17 -51 17
-52 47 -41 63 22 122 72 150 128 39 76 38 123 -9 396 l-7 41 -45 -19z"/>
<path d="M10601 8787 c-36 -18 -65 -62 -56 -84 6 -16 9 -14 20 13 15 35 32 50
59 55 11 2 19 8 19 14 -2 15 -16 16 -42 2z"/>
<path d="M9777 8760 c-65 -16 -121 -31 -125 -34 -13 -14 7 -13 74 2 105 22
104 23 104 -108 l0 -110 -38 0 c-49 0 -62 14 -62 67 0 57 -16 55 -24 -3 -7
-56 8 -120 32 -133 24 -13 314 -68 397 -76 119 -11 109 -2 155 -141 l42 -124
26 14 c60 31 113 78 150 133 39 58 196 393 184 393 -4 -1 -18 -7 -32 -15 -14
-8 -53 -14 -91 -15 l-65 0 -23 -54 c-28 -67 -91 -128 -169 -163 -55 -24 -60
-25 -147 -13 -132 17 -160 26 -193 64 -42 48 -46 78 -26 205 9 60 14 117 11
125 -9 22 -40 19 -180 -14z m160 -27 c-3 -21 -11 -80 -18 -130 -11 -75 -17
-93 -30 -93 -23 0 -29 19 -35 109 -2 42 -7 90 -9 108 -4 34 4 39 69 42 28 1
28 0 23 -36z m-117 -246 c22 8 38 8 65 -1 34 -12 73 -51 62 -62 -9 -9 -170 26
-194 42 -33 21 -28 34 7 21 22 -8 38 -8 60 0z"/>
<path d="M10835 8174 c-27 -2 -113 -8 -190 -14 -202 -15 -323 -57 -428 -150
-30 -28 -60 -50 -65 -50 -5 0 -13 -15 -16 -32 -25 -137 -205 -1333 -200 -1337
3 -3 8 0 12 6 7 11 72 426 88 561 l6 53 62 -64 c122 -125 319 -233 479 -262
20 -4 37 -10 37 -14 0 -3 -15 -22 -33 -41 -18 -19 -120 -131 -226 -249 -166
-185 -192 -217 -186 -239 9 -38 180 -387 207 -424 33 -44 46 -68 27 -50 -21
20 -602 17 -683 -4 -129 -33 -250 -114 -317 -210 l-30 -44 660 0 660 0 78 -39
c90 -45 166 -69 342 -111 183 -43 536 -127 941 -224 195 -48 356 -86 357 -86
8 0 2 209 -9 277 -8 55 -120 398 -379 1155 -203 592 -380 1105 -393 1138 -35
86 -126 219 -187 274 -69 62 -153 112 -251 147 -70 26 -99 31 -197 33 -64 2
-138 2 -166 0z m330 -32 c171 -53 321 -172 413 -329 43 -73 59 -117 452 -1268
214 -628 357 -1061 366 -1110 8 -44 14 -123 14 -176 l0 -96 -242 59 c-324 79
-649 157 -953 228 -275 64 -350 87 -440 132 -147 74 -289 200 -383 339 -49 74
-214 428 -205 442 7 11 589 662 656 734 17 18 29 35 26 37 -3 3 -54 -51 -114
-119 l-110 -125 -46 5 c-110 12 -263 81 -387 175 -101 76 -162 144 -161 179 0
14 24 177 53 361 l53 334 53 47 c68 61 169 114 256 135 92 21 403 44 534 38
62 -2 129 -11 165 -22z"/>
<path d="M10502 8038 c-16 -16 -15 -53 3 -68 18 -15 52 -4 66 22 20 37 -38 77
-69 46z m56 -29 c3 -28 -16 -43 -43 -33 -15 6 -21 45 -8 58 16 16 48 1 51 -25z"/>
<path d="M11112 8038 c-26 -26 -7 -78 28 -78 19 0 50 30 50 48 0 32 -54 54
-78 30z m56 -29 c4 -30 -22 -46 -44 -28 -17 14 -18 46 -1 52 25 11 42 1 45
-24z"/>
<path d="M10806 7854 c-9 -8 -16 -22 -16 -29 0 -7 7 -21 16 -29 8 -9 22 -16
29 -16 7 0 21 7 29 16 9 8 16 22 16 29 0 7 -7 21 -16 29 -8 9 -22 16 -29 16
-7 0 -21 -7 -29 -16z m58 -16 c8 -14 7 -21 -6 -34 -30 -30 -75 9 -48 42 16 18
39 15 54 -8z"/>
<path d="M10238 7769 c-21 -12 -24 -49 -6 -67 19 -19 45 -14 62 10 13 19 14
25 2 43 -16 24 -35 28 -58 14z m40 -8 c8 -4 12 -19 10 -32 -2 -18 -9 -24 -28
-24 -28 0 -39 27 -20 50 14 17 20 18 38 6z"/>
<path d="M11161 7631 c-12 -12 -21 -25 -21 -31 0 -5 9 -19 21 -31 18 -18 23
-19 42 -6 12 8 22 25 22 37 0 12 -10 29 -22 37 -19 13 -24 12 -42 -6z m54 -31
c0 -20 -6 -26 -27 -28 -25 -3 -28 0 -28 28 0 28 3 31 28 28 21 -2 27 -8 27
-28z"/>
<path d="M10556 7564 c-19 -18 -21 -45 -4 -62 39 -39 100 17 63 58 -22 24 -38
25 -59 4z m52 -31 c-3 -32 -44 -46 -54 -19 -10 26 4 46 31 46 23 0 26 -4 23
-27z"/>
<path d="M10170 7436 c-28 -35 11 -93 48 -70 35 22 22 84 -18 84 -10 0 -23 -7
-30 -14z m44 -2 c20 -8 21 -50 1 -58 -24 -9 -45 4 -45 28 0 34 12 42 44 30z"/>
<path d="M11512 7438 c-17 -17 -15 -53 3 -68 20 -17 62 -5 70 21 13 40 -44 76
-73 47z m46 -7 c20 -12 11 -56 -12 -56 -27 0 -43 29 -27 49 15 18 21 19 39 7z"/>
<path d="M10846 7364 c-9 -8 -16 -20 -16 -25 0 -22 22 -49 40 -49 22 0 50 25
50 45 0 7 -7 21 -16 29 -8 9 -22 16 -29 16 -7 0 -21 -7 -29 -16z m58 -16 c8
-14 7 -21 -6 -34 -30 -30 -75 9 -48 42 16 18 39 15 54 -8z"/>
<path d="M11110 7155 c-15 -19 -6 -61 16 -69 18 -7 64 18 64 35 0 42 -54 65
-80 34z m58 -27 c3 -24 0 -28 -23 -28 -27 0 -41 20 -31 46 10 27 51 13 54 -18z"/>
<path d="M10430 7111 c-18 -35 18 -79 54 -65 22 8 31 51 16 69 -18 21 -57 19
-70 -4z m65 -21 c0 -20 -6 -26 -27 -28 -24 -3 -28 0 -28 21 0 30 9 39 35 35
14 -2 20 -10 20 -28z"/>
<path d="M11396 6914 c-31 -31 -13 -74 31 -74 43 0 52 59 12 80 -23 13 -25 13
-43 -6z m52 -31 c-3 -32 -44 -46 -54 -19 -10 26 4 46 31 46 23 0 26 -4 23 -27z"/>
<path d="M10762 6883 c-23 -9 -33 -41 -20 -63 24 -38 78 -19 78 27 0 18 -28
46 -42 42 -2 0 -9 -3 -16 -6z m46 -46 c-4 -33 -52 -31 -56 2 -2 13 2 27 9 32
20 12 51 -9 47 -34z"/>
<path d="M11036 6709 c-17 -25 -12 -45 15 -60 26 -14 59 5 59 34 0 47 -48 63
-74 26z m62 -15 c4 -25 -20 -47 -42 -38 -16 6 -22 45 -9 58 14 14 48 1 51 -20z"/>
<path d="M11782 6648 c-19 -19 -14 -45 10 -62 19 -13 25 -14 43 -2 25 16 31
42 15 61 -15 18 -52 19 -68 3z m63 -18 c8 -27 -1 -40 -30 -40 -25 0 -38 21
-29 45 9 22 51 19 59 -5z"/>
<path d="M10496 6511 c-23 -25 -13 -59 20 -67 14 -4 31 -1 39 6 21 18 19 57
-4 70 -27 14 -35 13 -55 -9z m59 -31 c0 -20 -5 -25 -25 -25 -20 0 -26 6 -28
28 -3 26 -1 28 25 25 22 -2 28 -8 28 -28z"/>
<path d="M11327 6409 c-20 -27 -10 -58 19 -65 30 -8 54 11 54 40 0 46 -48 62
-73 25z m51 2 c8 -4 12 -19 10 -32 -2 -18 -9 -24 -28 -24 -19 0 -26 6 -28 24
-3 20 11 41 28 41 3 0 11 -4 18 -9z"/>
<path d="M10840 6315 c-16 -20 -5 -62 19 -70 42 -13 72 25 51 65 -13 24 -52
27 -70 5z m64 -18 c9 -15 7 -21 -8 -32 -35 -26 -74 13 -44 43 16 16 38 12 52
-11z"/>
<path d="M11620 6170 c-12 -22 0 -55 22 -63 39 -13 74 37 48 68 -18 21 -57 19
-70 -5z m65 -20 c0 -19 -6 -26 -24 -28 -29 -4 -43 15 -30 41 15 28 54 19 54
-13z"/>
<path d="M10440 6135 c-17 -20 -4 -62 21 -70 15 -5 28 -1 42 14 18 17 19 24 9
46 -13 29 -52 34 -72 10z m64 -18 c9 -15 7 -21 -9 -33 -22 -16 -34 -14 -49 8
-7 12 -6 21 4 33 16 19 39 16 54 -8z"/>
<path d="M11170 5995 c-15 -18 -6 -61 16 -69 19 -7 50 8 58 29 16 42 -45 75
-74 40z m55 -25 c0 -18 -6 -26 -23 -28 -24 -4 -38 18 -28 44 3 9 15 14 28 12
17 -2 23 -10 23 -28z"/>
<path d="M12018 5939 c-21 -12 -24 -49 -6 -67 19 -19 45 -14 62 10 13 19 14
25 2 43 -16 24 -35 28 -58 14z m40 -8 c8 -4 12 -19 10 -32 -2 -18 -9 -24 -28
-24 -28 0 -39 27 -20 50 14 17 20 18 38 6z"/>
<path d="M10805 5820 c-37 -41 24 -97 63 -58 18 18 14 56 -7 68 -27 14 -35 13
-56 -10z m60 -30 c0 -20 -5 -25 -25 -25 -20 0 -26 6 -28 28 -3 26 -1 28 25 25
22 -2 28 -8 28 -28z"/>
<path d="M11506 5671 c-23 -25 -13 -59 20 -67 46 -12 72 37 38 70 -21 21 -37
20 -58 -3z m64 -21 c0 -36 -33 -53 -57 -29 -12 12 -6 39 11 51 11 8 46 -8 46
-22z"/>
<path d="M11920 5500 c-12 -22 0 -55 22 -63 39 -13 74 37 48 68 -18 21 -57 19
-70 -5z m65 -20 c0 -19 -6 -26 -24 -28 -29 -4 -43 15 -30 41 15 28 54 19 54
-13z"/>
<path d="M9770 8150 c0 -6 30 -10 70 -10 40 0 70 4 70 10 0 6 -30 10 -70 10
-40 0 -70 -4 -70 -10z"/>
<path d="M4236 8063 c-78 -205 -93 -248 -91 -251 3 -3 668 117 673 123 2 2 20
41 39 87 18 46 36 89 40 96 4 9 -63 12 -315 12 l-320 0 -26 -67z"/>
<path d="M4938 7942 c-86 -14 -89 -16 -154 -75 -73 -67 -131 -147 -174 -240
-61 -130 -63 -147 -67 -579 l-5 -398 -519 0 c-410 0 -517 3 -514 13 2 6 25
102 50 212 130 565 151 619 287 761 45 47 103 99 130 116 26 17 48 33 48 34 0
5 -101 -27 -154 -48 -65 -25 -176 -98 -237 -155 -63 -59 -131 -161 -169 -253
-35 -84 -474 -1967 -491 -2102 -19 -154 9 -305 83 -453 44 -90 120 -195 126
-177 3 11 53 42 67 42 18 0 0 -32 -25 -45 -16 -9 -30 -20 -30 -25 0 -19 163
-138 242 -176 155 -76 97 -73 1203 -78 545 -3 998 -8 1007 -11 48 -19 51 -156
4 -187 -6 -4 -35 -8 -63 -8 -57 0 -61 -5 -38 -50 17 -33 61 -60 100 -60 l25 0
0 -192 c0 -183 1 -190 18 -175 10 9 42 27 72 40 264 116 869 99 1063 -29 l38
-25 -3 738 -3 738 -27 80 c-67 195 -206 348 -388 425 -120 50 -134 52 -527 57
l-373 5 0 489 0 488 55 54 c86 85 72 128 -46 142 -100 12 -338 -52 -493 -133
-81 -42 -172 -111 -198 -150 -18 -26 -18 -15 -15 453 3 533 3 529 73 672 36
75 165 224 218 252 14 8 26 18 26 23 0 12 -125 7 -222 -10z m-91 -1910 c-1
-81 -3 -12 -3 153 0 165 2 231 3 147 2 -84 2 -219 0 -300z m0 -319 c-2 -32 -3
-8 -3 52 0 61 1 87 3 58 2 -29 2 -78 0 -110z m-1779 -535 c-5 -14 -51 -23 -74
-14 -27 10 -4 26 37 26 28 0 39 -4 37 -12z m102 -3 c0 -11 -11 -15 -40 -15
-29 0 -40 4 -40 15 0 11 11 15 40 15 29 0 40 -4 40 -15z m110 0 c0 -11 -11
-15 -40 -15 -29 0 -40 4 -40 15 0 11 11 15 40 15 29 0 40 -4 40 -15z m90 -5
c0 -23 -8 -24 -44 -10 -37 14 -32 30 9 30 28 0 35 -4 35 -20z m580 5 c0 -8 -4
-15 -10 -15 -5 0 -10 -7 -10 -15 0 -8 -4 -15 -10 -15 -5 0 -10 14 -10 30 0 23
4 30 20 30 11 0 20 -7 20 -15z m108 3 c-3 -7 -21 -14 -41 -16 -28 -2 -37 1
-37 12 0 12 11 16 41 16 28 0 39 -4 37 -12z m105 -3 c-4 -15 -76 -12 -81 3 -3
10 7 12 39 10 24 -2 43 -7 42 -13z m105 3 c-3 -7 -20 -13 -38 -13 -18 0 -35 6
-37 13 -3 8 8 12 37 12 29 0 40 -4 38 -12z m110 0 c-3 -7 -21 -14 -41 -16 -28
-2 -37 1 -37 12 0 12 11 16 41 16 28 0 39 -4 37 -12z m102 -4 c0 -11 -9 -14
-37 -12 -52 4 -56 28 -4 28 30 0 41 -4 41 -16z m20 -54 c0 -29 -4 -40 -15 -40
-10 0 -15 10 -15 33 0 19 3 37 7 40 15 16 23 5 23 -33z m-1132 -37 c-2 -21 -7
-38 -13 -38 -5 0 -11 17 -13 38 -3 29 0 37 13 37 13 0 16 -8 13 -37z m562 -23
c0 -22 -4 -40 -10 -40 -5 0 -10 18 -10 40 0 22 5 40 10 40 6 0 10 -18 10 -40z
m570 -51 c0 -52 -24 -48 -28 4 -2 28 1 37 12 37 12 0 16 -11 16 -41z m-1130
-35 c0 -24 -5 -34 -15 -34 -10 0 -15 10 -15 33 0 19 3 37 6 40 13 13 24 -5 24
-39z m2504 28 c2 -4 -22 -47 -53 -94 -32 -48 -69 -113 -81 -145 -26 -64 -38
-83 -52 -83 -27 0 58 189 122 274 41 55 54 64 64 48z m-1944 -42 c0 -22 -4
-40 -10 -40 -5 0 -10 18 -10 40 0 22 5 40 10 40 6 0 10 -18 10 -40z m568 -52
c-3 -47 -21 -55 -26 -12 -4 31 4 54 18 54 7 0 10 -17 8 -42z m-1128 -38 c0
-29 -4 -40 -15 -40 -11 0 -15 11 -15 40 0 29 4 40 15 40 11 0 15 -11 15 -40z
m560 -20 c0 -22 -4 -40 -10 -40 -5 0 -10 18 -10 40 0 22 5 40 10 40 6 0 10
-18 10 -40z m570 -50 c0 -29 -4 -40 -15 -40 -10 0 -15 10 -15 33 0 19 3 37 7
40 15 16 23 5 23 -33z m-1136 -8 c-1 -7 -2 -23 -2 -37 -2 -28 -32 -35 -32 -7
0 32 13 63 24 59 6 -2 11 -9 10 -15z m580 -40 c9 -34 2 -52 -14 -36 -5 5 -13
25 -16 43 -9 45 17 38 30 -7z m536 -30 c0 -21 -27 -62 -41 -62 -14 0 -11 28 7
55 19 29 34 32 34 7z m-1155 -23 c4 -6 -3 -21 -16 -35 -38 -40 -54 -26 -23 21
18 27 29 31 39 14z m672 -31 c25 -24 29 -38 11 -38 -14 0 -58 40 -58 52 0 15
23 8 47 -14z m421 -26 c3 -10 -66 -52 -88 -52 -21 0 -9 21 28 44 38 26 53 28
60 8z m-333 -28 c22 -14 35 -44 20 -44 -18 0 -65 33 -65 45 0 19 15 19 45 -1z
m215 -37 c0 -14 -40 -37 -65 -37 -24 0 -17 18 13 34 34 19 52 20 52 3z m-119
-14 c31 -18 35 -28 19 -38 -10 -6 -70 24 -70 35 0 8 11 20 18 20 2 0 17 -8 33
-17z"/>
<path d="M8038 7128 c-15 -12 -188 -292 -188 -304 0 -3 28 -4 62 -2 l61 3 74
120 c40 66 73 127 73 137 0 21 -34 58 -53 58 -7 0 -20 -6 -29 -12z"/>
<path d="M9037 6720 c-49 -118 -60 -175 -55 -279 6 -101 31 -174 86 -246 38
-50 38 -50 101 -53 l64 -3 -27 32 c-64 76 -106 199 -106 309 0 77 15 136 63
248 l35 82 -61 0 -62 0 -38 -90z"/>
<path d="M7560 6660 c-22 -35 -29 -40 -63 -40 -28 0 -44 -7 -61 -25 -36 -38
-51 -81 -38 -109 9 -20 7 -24 -18 -33 -17 -7 -36 -26 -49 -51 -24 -47 -26 -73
-9 -90 9 -9 9 -12 -3 -12 -21 0 -55 -38 -73 -82 -14 -34 -14 -38 5 -62 20 -26
21 -26 164 -26 79 0 155 4 169 10 37 14 79 85 73 123 -3 24 1 36 20 50 35 28
66 93 54 116 -8 14 -4 22 19 40 16 12 37 35 45 51 9 17 20 30 25 30 5 0 39
-26 75 -59 37 -32 88 -70 115 -85 65 -36 204 -54 173 -22 -3 3 -21 6 -39 6
-61 0 -142 41 -225 112 -76 66 -80 68 -132 68 -43 0 -58 -5 -73 -22 -10 -11
-39 -34 -63 -50 -37 -23 -56 -28 -108 -28 -49 0 -63 3 -63 15 0 8 27 57 60
108 33 52 60 97 60 100 0 18 -18 3 -40 -33z m-50 -65 c0 -2 -14 -26 -30 -52
-17 -26 -28 -53 -26 -60 7 -16 -16 -17 -32 -1 -18 18 -15 40 13 81 18 26 33
37 50 37 14 0 25 -2 25 -5z m270 -54 c0 -5 -13 -23 -29 -40 -20 -22 -38 -31
-60 -31 l-30 0 42 40 c39 37 77 52 77 31z m-74 -116 c9 -22 -15 -72 -44 -95
-22 -18 -41 -20 -174 -20 -123 0 -150 3 -154 15 -9 22 2 58 27 88 l20 27 160
0 c134 0 161 -2 165 -15z m-70 -160 c8 -20 -34 -91 -63 -104 -14 -6 -83 -11
-163 -11 -129 0 -140 1 -150 20 -9 16 -6 29 16 65 l26 45 164 0 c135 0 166 -3
170 -15z"/>
<path d="M4210 3831 c0 -321 -3 -309 98 -354 122 -55 232 -71 497 -71 208 0
253 3 336 22 53 11 115 28 138 38 l42 17 -7 56 c-4 31 -21 171 -38 311 l-31
255 -518 3 -517 2 0 -279z"/>
<path d="M5270 4078 c1 -61 66 -567 74 -575 4 -4 19 5 32 20 l24 28 0 280 0
279 -65 0 -65 0 0 -32z"/>
<path d="M10254 3881 c50 -120 92 -216 93 -212 2 6 53 415 53 426 0 3 -54 5
-119 5 l-119 0 92 -219z"/>
<path d="M10420 4088 c0 -7 -11 -103 -25 -213 -14 -110 -25 -216 -25 -235 0
-39 210 -554 221 -542 3 4 59 225 124 492 65 267 120 491 123 498 3 9 -42 12
-207 12 -162 0 -211 -3 -211 -12z"/>
<path d="M6007 3695 c-156 -22 -310 -89 -323 -139 -13 -54 41 -95 180 -137
l89 -26 65 -234 c35 -129 67 -237 71 -242 4 -4 29 0 55 9 77 26 204 16 287
-23 114 -53 185 -133 226 -252 12 -36 24 -64 25 -61 1 3 5 192 8 420 l5 415
50 23 c66 31 95 59 95 92 0 53 -98 108 -250 141 -127 27 -441 35 -583 14z"/>
<path d="M5271 3424 c-43 -18 -142 -40 -244 -54 -99 -13 -350 -13 -441 0 -38
6 -70 9 -72 7 -2 -1 3 -43 11 -92 8 -50 26 -171 41 -270 15 -99 28 -181 29
-183 2 -2 24 11 50 27 81 51 138 66 255 66 97 0 110 -2 172 -32 103 -48 191
-147 218 -243 8 -30 17 160 25 528 3 144 2 262 -2 262 -5 -1 -23 -7 -42 -16z"/>
<path d="M10440 3048 c-56 -15 -150 -50 -150 -57 -1 -3 -9 -70 -19 -149 -15
-126 -15 -142 -2 -137 32 12 170 118 220 169 l53 53 -34 65 -33 65 -35 -9z"/>
<path d="M10170 2932 c-86 -48 -181 -111 -233 -154 l-28 -23 62 -85 c34 -47
64 -87 66 -90 7 -8 193 93 193 105 1 5 9 74 19 153 9 78 15 142 12 142 -4 0
-44 -22 -91 -48z"/>
</g>
</svg>
